<mxfile host="app.diagrams.net" agent="Mozilla/5.0 (Macintosh; Intel Mac OS X 10.15; rv:136.0) Gecko/20100101 Firefox/136.0" version="26.2.2">
  <diagram name="Page-1" id="xKhlsxAtRhAonfhplPug">
    <mxGraphModel dx="1190" dy="668" grid="1" gridSize="10" guides="1" tooltips="1" connect="1" arrows="1" fold="1" page="1" pageScale="1" pageWidth="1920" pageHeight="1200" math="0" shadow="0">
      <root>
        <mxCell id="0" />
        <mxCell id="1" parent="0" />
        <mxCell id="PluMJd1qhxhPaZObRuaH-5" value="" style="rounded=1;whiteSpace=wrap;html=1;strokeColor=#336699;strokeWidth=2;" parent="1" vertex="1">
          <mxGeometry x="470" y="390" width="743" height="60" as="geometry" />
        </mxCell>
        <mxCell id="lkaNOGTGJZpjp38PW3jR-1" value="" style="shape=image;verticalLabelPosition=bottom;labelBackgroundColor=default;verticalAlign=top;aspect=fixed;imageAspect=0;image=data:image/png,iVBORw0KGgoAAAANSUhEUgAAAskAAAAqCAYAAABBesboAAABYWlDQ1BJQ0MgUHJvZmlsZQAAKJFtkLFLw1AQxr/YSqVmUBBBEMwmSis1VYqLUFtRoUOIitYtTWpabesziYibm/+A1MlNxNWpDh0EB8FJEBScHFycC1m0xHut2la9x3E/Pu57794BXaLGWMEPoFhyLHVhTlpPb0iBN/gwgh6EIWq6zeKKkqIWfNfOcB8h8PoQ5nfld0/ZpXqbvCkPnWWupNrf/o4IGllbp/pBKevMcgAhQqzsO4zzIfGARUMRH3M2m3zBOdPkaqNnRU0Q3xP36TnNIH4hDmXadLONi4U9/WsGPr2YLa0uUx2kHEYS80jRkaBARgyTmMEi7eh/z1TDk8AOGA5gIQ8TOTjkjpPCUECWeAkl6JhAiFhGhHKa7/r3DluacQREx+mpYEvbegWqJ0D/XUsb3abvzALXaaZZ2s9mBddvb0blJvdWgO6y59XWgMAYUH/yvPeK59XPAd8zed1PS1tjfxgNH8kAAABWZVhJZk1NACoAAAAIAAGHaQAEAAAAAQAAABoAAAAAAAOShgAHAAAAEgAAAESgAgAEAAAAAQAAAsmgAwAEAAAAAQAAACoAAAAAQVNDSUkAAABTY3JlZW5zaG90lNko4QAAAdVpVFh0WE1MOmNvbS5hZG9iZS54bXAAAAAAADx4OnhtcG1ldGEgeG1sbnM6eD0iYWRvYmU6bnM6bWV0YS8iIHg6eG1wdGs9IlhNUCBDb3JlIDYuMC4wIj4KICAgPHJkZjpSREYgeG1sbnM6cmRmPSJodHRwOi8vd3d3LnczLm9yZy8xOTk5LzAyLzIyLXJkZi1zeW50YXgtbnMjIj4KICAgICAgPHJkZjpEZXNjcmlwdGlvbiByZGY6YWJvdXQ9IiIKICAgICAgICAgICAgeG1sbnM6ZXhpZj0iaHR0cDovL25zLmFkb2JlLmNvbS9leGlmLzEuMC8iPgogICAgICAgICA8ZXhpZjpQaXhlbFlEaW1lbnNpb24+NDI8L2V4aWY6UGl4ZWxZRGltZW5zaW9uPgogICAgICAgICA8ZXhpZjpQaXhlbFhEaW1lbnNpb24+NzEzPC9leGlmOlBpeGVsWERpbWVuc2lvbj4KICAgICAgICAgPGV4aWY6VXNlckNvbW1lbnQ+U2NyZWVuc2hvdDwvZXhpZjpVc2VyQ29tbWVudD4KICAgICAgPC9yZGY6RGVzY3JpcHRpb24+CiAgIDwvcmRmOlJERj4KPC94OnhtcG1ldGE+ChSuuKgAAByvSURBVHgB7V0HeBXVtl5ASAiEUAIhhIQaSui9KqJAlKoIePWKIhob5SI8eI9P8VpA9KpXkQuoiGJBlCIivckNAmIoAqGFXkIJkBBKIIQS3v73YcfJnJJTZs45CWt935yZ2bP32mv+c+bMP2vWXrvIbSHEwggwAowAI8AIMAKMACPACDACuQgE5G7xhikI5PcMUqRIEVP6ZaWMACPACDACjAAjwAgwAu4jwCTZfezstrRFjPVlihxry1WZXcV8gBFgBBgBRoARYAQYAUbAKwgUESSNwy0MgloLpb1tbVdaUmxvW1uftxkBRsB/EcjKyqKrV6/S9evX5XLr1i1S/wO4vosVK0aBgYFyKVmyJAUHB/vvybBljAAjwAgwAsQk2aAfgboZ6tc5OTm5N0p9V7hxFi1aVBYrkqxf69vwPiPACPgPAiDCFy5coMzMTLp586ZLhgUEBFBISAiVLVtWEmiXGnNlRoARYAQYAdMRYJJsAMRaYoxtEGOIWqNM1VHdgQwrQqyIMtbacnVcteE1I8AI+A8CGRkZhEV/bbtqIa7zcuXKycXVtlyfEWAEGAFGwDwEmCR7iK26QSoiDGKsvMcoW7TqGK3fnEoHDl+itAvXZG8Vypag2jVD6Z5WEdSra7VcYgySzETZwy+EmzMCJiOAcIqzZ89Sdna2oT0FBQVReHi4DMcwVDErYwQYAUaAEXALgbuGJJ8+fZp+//13OnbsGFWqVIlat25NtWvXdgs01UhPkFUMIkjyouVHaMa8g3T2fJaqbnMdXj6YBvWLoV4P1cglyIhdZI+yTbi40EQEzLhGTDTXJ6oRd5yampr7lshoI/CQHBERwfHKRgPL+hgBRoARcAOBQk2SQVq///57mjt3LiUlJVnBExMTQz179qT4+HgqXbq01XFHBfYIMuISP/gsiRatPu6oudWxXl2q0uiXGhPiFEGQmShbQcQFJiBg5jVigrk+VQmCfOrUKa/YEBkZyUTZK0hzJ4wAI8AI2Eeg0JLkK1eu0NNPP01btmwhvMZs27YtNW3alGJjY+nIkSOSNG/cuFEOuqlZsybNmjWLKleubB8p3REVXoG1CrFwlyAr1VqirA+94PhkhRKvjULA7GvEKDv9QQ9CLE6ePGmaB1l/jrj+q1SpwqEXemB4nxFgBBgBLyLgFkkGKbx06ZIcle1FW13qCgR57dq11Lx5c5o+fTqFhYVZtUdM4YgRI2jJkiVUr149WrRokVM3Ja0XGZ444IH1LyuO0IfTdln140rBqBca0sMP1pCeZNwolUcZOpgou4Ik180PATOvkfz6LmjHT5w4YXgMcn4Y4OE+Kioqv2p8nBHwewR27cughN9PiEGurpnaqF4YdWof6Vojrs0IGIiA3clEEhMTacaMGXTgwAH52g8e2Oeff57q1KlDY8aMoQULFtD27dsJ+T79TWAbCHKzZs1o5syZVKpUKZsm4iY0efJkmbppxYoV9MUXX9CQIUNs1tUXaj3J2IYX+RsRg+ypQEePztEyPln1AZ1MkD1FlttrEbB3jSAuGdf9gw8+SC1atJBvYdy9RrT9FeRtZLAwepCeM3igT/SNzBeFTRp1mkQ7E/5R2E7L0POZ/sNe+vRb6zBBdPLy040p/olYQ/vTKzPqO9q2O43iR/2qV+/0/qvDWlHf7jWdrm9GxStZN2lFwnH67+8n6fiJS5SecU3co4tQdGRpqlK5FNWvXZ7694qhUsF2KZUZZrFOLyBg8xtds2YNvfDCC9SmTRsZpoBXjdrBKj169JB/3P5IkIHZ1KlTpUcYN3t7BFlhC2/tlClTqH379tLjPHjwYJcIKYisHKi36jidO2/JXqF0u7OGjkVCV59uNV2yw52+uM3di4C9awQk+fPPP5eDW0GSIZ5eIwUZZbwhAlF1R86cy6ZNOzKoft1QqhXtnjMBfYeGhnIe5Xy+gFXrTtCUGTso5XRmPjXzHn6mf30a9myjvIV+sLdAvJW0R5BhHo5VKF+CHhFvHf1d9h++6JGJu/al+5Qk/7T0ME2avp0ys25YnUfyofOE5df1KfTNnL008qVm1KtLdat6XFBwEbBJkn/66SfpGZ02bZpNkrlhwwZavnw5jRo1ShLErl27WiEwfPhw6tu3ryyHh3bevHkybVK7du1o3LhxueEP8EqvWrWK1q1bZ4hXGvHG+/bto8cff9xpD0zx4sVl/UmTJhHilEGY7QlIsRKQY8iNGzdo459nVLHHa+jq2SVa3hjRB0IuIOibPcoew3vXK3B0jajfl1orsFy5RlSbwrDGRCHaa97ZczqTlk2vjN8pwrAsLV4dUoeaxoY62zy3HvqGDbbCxXIr8QZ98OlW6d1zFYqv5+6RTXxJlB0R/P95oRn9vU+dPKc16+f99O9p22jcxE1yUQejI0Ppleea+F14gjvXjzonrHNu/XXP1Zabtd2i22ypesvSv9Ho8RuE9/iE3K9Xqzz1frAmNa0fRlGRIdJrfOHSdVqw/DDNWXyAzpy7Sm/+O5F2i9CSMUOamWWe23pv3LhNx05eouOnMoU3/LLUUz0qVHjDS1HVKqFUvHgRt3UX5oY2STLicxcvXkzjx4+XiyJpCogzZ87IVGr48SMbwwMPPKAOyTRrIKklSpSQZcgsAT3wSnfp0oW+++476aVGOTxUhw8fpvT0dLp48aIhJHnHjh2yX/QFgWds//79ctvWBwbrIYSke/fuBJK8efNmhyRZ6cC5YwGJRajFgSOueTCUHlvrnXsv0s/iwgsMDKJiAcWoaBFLSjjU1ZMXW+25rPAhEFi8KDUU8Xk1ol3LwmILCUfXyKFDh2QTrBGyBHH3GpGNXfxQNyhts63L/qbdJWfq5GngwQ5m0nNHkg9l5hJktN++66JbJBltYYORJPnylRs09ZtdlHzwPNQ7JZGVQmjwwIZUJcJ26JpTSkyshNffEP1vxV6X2t+Qr4myPYIPL7eeION8UJaekU3KbnWOKacu0Qefb/U7kqzsK2jrf03dJglycFAAvTa8NXW7P9rqFMqGBtIzj9Wjp/vVoy9/3EvTvk+iuYv3U2ip4jT4mYZW9X1RkHLqCk2ftZtW/naMrt+wOPb0dgQWLybOrxo9/2QDqhzu3lsvvU5P9h09ONrTGyHsHhHfjLrca+w4Dpsk+dlnnyV4k5HxAV7j1157TcYo2jIOBPrNN9+Uh9LS0qTHuEmTJoSQDMh7770n8xHPmTNH7iNH8euvv0579uyhhg0b0ieffEJHjx51KbOEVGTn4/JlyxMSXlFCli5dSm+//bad2kSPPPKItKFGDctrK2dSPGmfjBVRPn/RuIkFrly7KQj4LUnCBQ8XzFh+2D0HPlD4EcCf267kdENIsv4aWbZsGb311lt5QEQsPxZInz59aOLEiYQsMBA8eN4NgpRveAB2R+rXDhFvgCiXKDdrVMYdNbINbIAtwcHBbuvQNvxi1h6as8i+40BbV20n7U2ji5ezafL4jqqoUK0V4fSFR9lVgg/gYafeVhD/1LNXC9X34suTAdmFc+KLDztTbExZh6YIfx89//dYatagAg17fS19OXs31a9T3qcPLNeyc2j8J1toecIRwSUcmi/Is0g8sPIwLf71iAjhqSXS0Tb3qWfZ3oOjo7PAb3/s+xuFVzyO6tR0//9W34dNkow43oULF9K7775Ls2fPlp5f5BPGAB5Hnsx33nmHrl69Kj3H6AgeYhDnxo0by5AKlKkBMMhbDJIML5Urqdegw5FUqFBBHka/EKR9e/HFF+W2rQ8Qeghm0IK46rEBSUbcotFy+6Z44gvELzufX7fRHbO+Qo+A/hrBNaCukXPnztH8+fOpQ4cO8voEGOoawRskSPny5eXazA9HHkHtMa1H0Gh78F/mrgQF4g1QEbqvbRglbEqjIHGz9URgi1Ek+aKbD/Tn0h1PjOTJ+flDWxBlPfH0tV3L/ptC85YcoO27z0lTmjWoSI/1qk1x91l7NX1ta2Hsf7AYIJkfQdaed8smFWmkCJF5b8oWERLzJ3VsGynemGtreGf7knhbNHhMAu3VvS26t3UVeqx3bWrfopI0ZMOWMzT7l/20YYsl//stEdry09KDdDTlMk0a15FKBPnAeGGZenB0Fa0bgjeNHree5k7rJh9wXG1vq75NkoyK8MSCJGMA39ChQ2X4BeKJBwwYYEsP/fnnnzLjRb9+/SQpRiUV5oCBgFi0YpY3qmXLlrKbP/74Q3qzMfhIDUDS9q/fRkw0BCnjXBUQ5fJlAilNvAIzQkqVKCaoMZNjI7AsLDpUuIUR5+PoGtm6daskyZ07d6bnnnsuT3eeXCN5FBWQHQxYdlcWrzlD4WFB9NKA6pQtYgHnrzhNrw52f4ZPT2yxdw54na+VNDE7KDxJbZtVpnoxeTNq/LLqMHHEohYt87ff/3QbzV6Y1+O/TZBlLPsP16ehg/xvwKH5qHi3h4lfbicsEO3DuSMr+navRTN/SqYTqZm0ev0Jiuto7Ot/R33jWJZ4E22LIA8e2ISee7xenuYdWlYiLJNn7KQZcyzx+aiwdecZeuWNdTTlnY7ijVjBuvKB+8df7KD/G2xMXLhdkqyQRBjCl19+KWOKN23aZJMkgySOHTtWzlqH0AwlmF4Vgnys2nKUYSCQGVKxYkVJ0pHzePTo0ZLs59cP7P/6669l3uf7778/v+pWx+FdrxUdZBhJblC7JPXoUk3iCZwQ0oI+1GJlABcwAi4g4OgasfemyNNrxAXz/KaqO8QUGS227rpAq9ado0H9q8pz6fNgBI2asJvmLjtNzRuWcSvThTu25Aek3mu6M/m8JMn3Cu/X471j8jRfv/lUgXhsN/PNQh5ATN5ZuuZYLkEe2C+WnnjY8oA1c8EBQcD2SkLTRLzav7e18xNgmWzyXaFeUAVJKBGaAHn0oVr0sojVF7fnXIHnuFdcTZmB5Nd1x71OksdN3GrlQe7ULkoSZNj/qRiPMH/ZQWlv3x4xIp1gQ/nAtVOE821J+isBweYdqfTJV0k08nnL2/bcEywAGwgnw9sWhL94KvmSZHSAfMK4eYaEhNjsD4Pxdu/eLWOTy5b9K3YHBBuhG8gYoQby2VRgcOHLL79MWIYNG0bffPNNvtonTJggvd6vvPJKbiYJR42ABUgDRBHX5g3KUGLSJUfNnD4GXUqvaoR9FkbAKATUNYLJdPAQrAShTwi9QJiSVtQ1gvr6gbzaep5uO+utUf24Wl+1c2btahiVPqNF1UhLDHF4WCAFBxWjuUtOysWdTBeu2uLM+XEd/0Xg6znJ0rhhg5rIgWHK0hHxjalEYFGa/sNuQZb3MUlWwBi4dvSf8vH0HfT9fMt3gy4Re3xNxPPqiSRyWJudx9rWKW/ceoZWrD1qdSj+7w1kGQYjItZaCX5H16/n0HDxu3qqX908JBl1Zv2cTD07Vzc0xlf1bfZ6zITfaZ4IuygtBlF6IjYDTp566ik52A0TDiDLBSYRASns1KmTVV/ISvHRRx8R4hzr1q0rCTFIcUpKiqz76KOP0sGDBwn5hxECsX79enrjjTdkWiNUQAo4hENgilyjBJkq4BFOSEiQZPnaNcvIZ71+pG6DLUh1h4wesNFZUSRWzYp3b5swqlDWsy8DfUMHdIGIQLfqx1m7uB4j4AwC6hpZvXp1nmsEJPnVV1/NDVHSXyMg13eLqAdhZ89Xn9Hit0TLuIjNSRcoK/uvcQvIdOGquGqLM/r/89VO0i7zFlu8S+v+OJWnHHXSL1zjcAtnQDWozuHjF6Smh+NqWGnE63zIvkMZVse4wFwElq4+YtWBrTKrSl4q+HzmLps91a1pcV6uTDhqdXyRCLGCNKwbZnUMvsAPP9tmVV4QChA+Nn7iZo9NtelJxgxP8MCqkd3ISIFBeXFxcVYdIoZRJdt/4oknco+DWCMEAzmR4QVBlglM/wypVauWzLGMbUz3ivYYmJLfxB+o76xgghCEeaBfpLwaOHCgjDfGYMHk5GRZ9sMPP8jtmJgYeb7wmOcnIK3qhgUSi3NDSERgYCD17lKOvppnGQCYnx57x6EDulQ4CvpQwt5khQSvjUDArGvECNsKog59RotGsWXkadSrVZqKidm5buVY3j41EW+K/EFURge9LX9sO01Y9BJW1pLWU1/O+8YjEFQ8gK5dvynuwTl2lTs6ZreRDw7gt++JFC1gMbGenKunbe29cM7KvinzOmOWQHtiL/b41i37v0F7uvyl/M5UFh6ZY5MkI1/whx9+KGfZwwA+bQgFekPaNiwQ5Eg+duyY3Lb1AWKHAYBYQIihT6VnQ3286kWyfMRJGikg3Eg79+2338q0dHhdrBfkRx45ciTFx8e7TdBBYpErGiPP72tTUYwKzaQ1ie6Nin+gTUmpA7qgU0uQ9bbzPiPgKQLeukY8tdNX7bUPxM7YgFyjuAnd10pltLDckCqWD6SPxzakjdsyaPaSEyLThf0blb1+zHhAnvxOpzzdHT+ZSe9P3SKyJ9SRo/K1B9+dtKXAepJtxfRqz80ft2NqlCHMNLdg5VGZWkxr47zFh+SufnClto4/bTdv6FlcaOum4X5zOt271MgTbgHDUOYvMmRgY3pxzBorc/buzyBk3ujWuYYModBW6H3H/l1iTIItGfpsY1vFfl9WTjzU/3NkK4/ttEmSoRXezKpVq3rcgVZBVJT1KE94b+GpNkMQsjBo0CC5IPwjMTFREnq8Um7btm1u3ld3+lY3LazRD2KuQTr6dQunW7dTae0m2yEe9vq6r3UJ2RY6oAs6oVst9tpxOSPgCQJmXiPu2KUGXjmKC9TqdbW+tm1+28BGvU3Lry6OL/41lcLLWzJaXL95WxCcVKpf2zL5S0R4EGEAX8rprDzlzuhFHdhitLRrnvd/N6SkJVysWlRp0h8LDg4oEAP39Bg5iunV1/Wn/QF969GYCRvos++SKPPqDXqqb10xs+stEYe8n35cuE+aigksCoLUql6GZnzUlX7742Ruvt4jKRdprdjXS4M6YdSqyV+/y0ZiAqVO7SP11UzdH/nWBmHbCRr+XFMxSUjdPH2NiG9CJcTD8PzllgeVv/Wukxt7rP6L8jQQO87+l+nbubMPItxTEGFkqdHKt/OSJUlG7HRJkT1rrgitCggoIh+IVez0jNl7tU3kdh8xMNGIwW9Wir1QMP5/23kcjwwz7ZJkL5yDV7uIjo4mLEYIiKs25AI6QfYxsBE31b5xNykyLI1WbrhO6Zccv6oICy1KcR0CqV2LCjL/LHRAF26KWk8y+mRhBMxEwMhrxEw7vaUbjgJnSHJuRov15+jZx6pJ8x59qDKNHL/LKqOFvfL8zgm2sLiOgL2YXgxY8mfpKmYN2967riTEyGaBRSsvPdXYytuvPe5v241jyxMWrWCii5/vkE2Ut2hUif4jJqsJEgMTfSkdWlWWJHnxqqNWJBm3Ycyk5y+z6dnCaczQ5nTo2MU8GS6QB3m6mBEw/vFYmc0CGS208sFn22XaN21Z0/oV5aQi2rKCso23YW2bGfMG4q4hyWZ8uYq4gsxigRcY5BlLh1ZFqX5MBu3Ym0UHj9+klNQilJFpsaKcSBISHXGbYqoGUJPYYEIMOCYxKVOmjNSh9LEX2YxvjXUyAs4hAGKa34Qi+owW1aMsGS0qlCtOJW1ktLBXnp9FRpLkwDskBAPytIKBLhAM3DuXZtlWxzFwr0qlUmq3wKwLStyuLUBHv9xUTkX/4y/7ZOgF6rRrUZn6i7Rd97XzrnfVln2elo0d3pLCK5Skz2fupHvEJBcf/bODcA753hnUo3N1kSYtiQ6JwZOLVx+jniIdqzOiPMYzZifT5K93ONPElDrBJQJo6nudrHIl45x27U2nJ8W05q3uhLBg+uf5Sw7RJpHuTSsgyJPwwOKjyUS0tri6HRURQiMMTFvHJNnVb+BOfeVNVkQZMcQQeIJBcjHwDmETISGXqWn9K4QMGyqNE7zEKjyjdOnSMuYb65IlS0oPMnRpCbLq407XvGIECj0C2leX6uajTlp7TJWZscb1iPESjkSf0SJhYxo93TeakNHiqi6jRdPYULvljvrAMdhilMR1rEoLxeQgrg7ce2lAXu+TUfaYqcdRTK+Z/Rqlu9v90YSlsMoLT9anBiKrAmaA85eXpZhlbnh8U3rzo0R6b/IWMc1xaSsvuL3vY+fe8/TZzCR7h71WHirSnk0X02m//fFmWvnb0dwwl3WbThIWeyKoCz0cV0tMxNFCcBjfPbBUDAsmd2b4LB5QlD54/R7DZtsDTkyS7f1anCi3RZRRBo+yGswH7zC8UZgMAOm0ICobBm58WECYVYgFCDQTZCfA5yqMgMkIqAG0jkIuEHOszVyRX0YLdzJdqP8So04XXqTERY8Zpc6v9TiK6fUXwxUhMOLhr5LwzBY0wYxv/ia9ulaX3vt5Sw5S/OjVNETMVjewf974ZL3NC1cepX9N2SpCtG7LWF9MaOFLAdmfMKYNvfhkA/pq9h5alnBUOOosGXb0dmHQcW+RbnBg/1iKrOT739CoF5uLNJQ75KyFelvt7UeKN13/EHHkdWoamz2oiAgNsI2aPUu43AoBBSHWWHJE3hGscXPFAnIMLzLKIfA0gwyDLOMGqDzHKGeCbAUvFzACPkMgPT09X29y6tls4SHOEHlGy1CNaEu4BQx2tdzeSSK7EMKxCpM06jSJdib8w7BTemjAQrc8T1oDQDCXftdLW+SVbbzynuwiIbBlWI3oMjT0mcaGDXQz+juyZbM/l4EZjX0/kZYLcgmpUimE+veqTQ8/VIPgqb10+QadPHOFduxJo1+WH6b9RzJkvQc6RNP7r7Wnlt1ny339mzBZ6IOP6zdyRPaty5RyKlMslyXXqC4G6UZFhhDW/hDq4gNY8u2SSXK+EDlXQUuU0ULtgxxjW+0rbYoMgyxDsG9rLQv5gxFgBHyCAK5fpLjUX7/eMgb/C9WqVZMP1d7q0xv9GE3APCWaRhNMb2Bodh9Gf0dm22uW/h8WHKQpIsYYuYYdCbLDjBQe0IfjqjuqxscKGAIcbmHQF4abGW6kiuwqtfAS27vBauva21Z6eM0IMALeRwAPsRhYe/687RyiZluEvtWDtNl9FWT9yAaBhYURMBqBJx6JoR5dq9GcRQcp+cB5Opl6hU4Ibyzu62HlSlDVqFDqfI/4/XWMlhN2GN0/6/MtAuxJNgF/W6RYX6YlxcoEW2XqGK8ZAUbAdwhgIqTs7GyvGoBxCrZyy3vVCO6MEWAEGIG7GAHfJiQspMCD7KpFnaLaV2tb5aqM14wAI+BfCISHh+fJW262dRifgD5ZGAFGgBFgBHyHAJNkk7FXpNje2uTuWT0jwAgYgADyFEdERBigyTkV6MvI3MjO9cq1GAFGgBFgBLQIcLiFFg3eZgQYAUbAAQJZWVmUmpqam6nGQVW3DsGDDIKM9HMsjAAjwAgwAr5FgEmyb/Hn3hkBRqCAIYCc52fPnjU8RhkxyAixYA9yAftBsLmMACNQaBFgklxov1o+MUaAETATgYyMDMKiH5Trap8IxUIWCywsjAAjwAgwAv6DAJNk//ku2BJGgBEoYAggjzKmrs7MzJQTB7liPtJDYhp7TBbCad5cQY7rMgKMACPgHQRMJcmeeli8AwH3wggwAoyA5wggXhkLwjGwqImEoBneYhBhhFJgQcwxxx17jjlrYAQYAUbATAQMJcl6Uqz21drME2HdjAAjwAgwAowAI8AIMAKMgFEIGDLjniLB2nVOTo6M1UMZtpWoOmqf14wAI8AIMAKMACPACDACjIC/IeARSVaEF2tFhkGIFUFGzB0WpDXC60YWRoARYAQYAUaAEWAEGAFGoCAg8P9MGXCClYiVlgAAAABJRU5ErkJggg==;" vertex="1" parent="1">
          <mxGeometry x="482" y="399" width="713" height="42" as="geometry" />
        </mxCell>
        <mxCell id="lkaNOGTGJZpjp38PW3jR-2" value="" style="endArrow=classic;html=1;rounded=0;strokeWidth=2;" edge="1" parent="1">
          <mxGeometry width="50" height="50" relative="1" as="geometry">
            <mxPoint x="600" y="430" as="sourcePoint" />
            <mxPoint x="600" y="540" as="targetPoint" />
          </mxGeometry>
        </mxCell>
        <mxCell id="lkaNOGTGJZpjp38PW3jR-3" value="" style="endArrow=classic;html=1;rounded=0;strokeWidth=2;entryX=0.5;entryY=0;entryDx=0;entryDy=0;exitX=0.418;exitY=0.971;exitDx=0;exitDy=0;exitPerimeter=0;" edge="1" parent="1" source="lkaNOGTGJZpjp38PW3jR-1">
          <mxGeometry width="50" height="50" relative="1" as="geometry">
            <mxPoint x="802" y="430" as="sourcePoint" />
            <mxPoint x="802" y="610" as="targetPoint" />
            <Array as="points">
              <mxPoint x="780" y="460" />
              <mxPoint x="750" y="460" />
              <mxPoint x="750" y="590" />
              <mxPoint x="802" y="590" />
            </Array>
          </mxGeometry>
        </mxCell>
        <mxCell id="lkaNOGTGJZpjp38PW3jR-4" value="" style="endArrow=classic;html=1;rounded=0;strokeWidth=2;" edge="1" parent="1">
          <mxGeometry width="50" height="50" relative="1" as="geometry">
            <mxPoint x="830" y="440" as="sourcePoint" />
            <mxPoint x="830" y="500" as="targetPoint" />
          </mxGeometry>
        </mxCell>
        <mxCell id="lkaNOGTGJZpjp38PW3jR-5" value="" style="endArrow=classic;html=1;rounded=0;strokeWidth=2;entryX=0.5;entryY=1;entryDx=0;entryDy=0;" edge="1" parent="1" target="lkaNOGTGJZpjp38PW3jR-16">
          <mxGeometry width="50" height="50" relative="1" as="geometry">
            <mxPoint x="870" y="410" as="sourcePoint" />
            <mxPoint x="870" y="680" as="targetPoint" />
          </mxGeometry>
        </mxCell>
        <mxCell id="lkaNOGTGJZpjp38PW3jR-6" value="" style="endArrow=classic;html=1;rounded=0;strokeWidth=2;entryX=0.5;entryY=0;entryDx=0;entryDy=0;" edge="1" parent="1" target="lkaNOGTGJZpjp38PW3jR-17">
          <mxGeometry width="50" height="50" relative="1" as="geometry">
            <mxPoint x="926" y="433" as="sourcePoint" />
            <mxPoint x="926" y="543" as="targetPoint" />
          </mxGeometry>
        </mxCell>
        <mxCell id="lkaNOGTGJZpjp38PW3jR-7" value="" style="endArrow=classic;html=1;rounded=0;strokeWidth=2;entryX=0.5;entryY=1;entryDx=0;entryDy=0;" edge="1" parent="1" target="lkaNOGTGJZpjp38PW3jR-23">
          <mxGeometry width="50" height="50" relative="1" as="geometry">
            <mxPoint x="975" y="400" as="sourcePoint" />
            <mxPoint x="975" y="480" as="targetPoint" />
          </mxGeometry>
        </mxCell>
        <mxCell id="lkaNOGTGJZpjp38PW3jR-8" value="" style="endArrow=classic;html=1;rounded=0;strokeWidth=2;" edge="1" parent="1">
          <mxGeometry width="50" height="50" relative="1" as="geometry">
            <mxPoint x="1027" y="428" as="sourcePoint" />
            <mxPoint x="1027" y="478" as="targetPoint" />
          </mxGeometry>
        </mxCell>
        <mxCell id="lkaNOGTGJZpjp38PW3jR-9" value="" style="endArrow=classic;html=1;rounded=0;strokeWidth=2;" edge="1" parent="1">
          <mxGeometry width="50" height="50" relative="1" as="geometry">
            <mxPoint x="1074" y="434" as="sourcePoint" />
            <mxPoint x="1074" y="544" as="targetPoint" />
          </mxGeometry>
        </mxCell>
        <mxCell id="lkaNOGTGJZpjp38PW3jR-10" value="" style="endArrow=classic;html=1;rounded=0;strokeWidth=2;" edge="1" parent="1">
          <mxGeometry width="50" height="50" relative="1" as="geometry">
            <mxPoint x="1120" y="410" as="sourcePoint" />
            <mxPoint x="1120" y="320" as="targetPoint" />
          </mxGeometry>
        </mxCell>
        <mxCell id="lkaNOGTGJZpjp38PW3jR-11" value="" style="endArrow=classic;html=1;rounded=0;strokeWidth=2;" edge="1" parent="1">
          <mxGeometry width="50" height="50" relative="1" as="geometry">
            <mxPoint x="1180" y="420" as="sourcePoint" />
            <mxPoint x="1240" y="420" as="targetPoint" />
          </mxGeometry>
        </mxCell>
        <mxCell id="lkaNOGTGJZpjp38PW3jR-12" value="&lt;font style=&quot;font-size: 16px;&quot; face=&quot;Calibri&quot;&gt;Slider to adjust the size of the network displayed&lt;/font&gt;" style="rounded=1;whiteSpace=wrap;html=1;" vertex="1" parent="1">
          <mxGeometry x="500" y="540" width="220" height="60" as="geometry" />
        </mxCell>
        <mxCell id="lkaNOGTGJZpjp38PW3jR-13" value="&lt;font style=&quot;font-size: 16px;&quot; face=&quot;Calibri&quot;&gt;Show the network in fullscreen&lt;/font&gt;" style="rounded=1;whiteSpace=wrap;html=1;" vertex="1" parent="1">
          <mxGeometry x="672" y="610" width="220" height="60" as="geometry" />
        </mxCell>
        <mxCell id="lkaNOGTGJZpjp38PW3jR-15" value="&lt;font style=&quot;font-size: 16px;&quot; face=&quot;Calibri&quot;&gt;Network View&lt;/font&gt;" style="rounded=1;whiteSpace=wrap;html=1;" vertex="1" parent="1">
          <mxGeometry x="774.25" y="500" width="128.5" height="30" as="geometry" />
        </mxCell>
        <mxCell id="lkaNOGTGJZpjp38PW3jR-16" value="&lt;font style=&quot;font-size: 16px;&quot; face=&quot;Calibri&quot;&gt;Table View&lt;/font&gt;" style="rounded=1;whiteSpace=wrap;html=1;" vertex="1" parent="1">
          <mxGeometry x="815" y="290" width="110" height="30" as="geometry" />
        </mxCell>
        <mxCell id="lkaNOGTGJZpjp38PW3jR-17" value="&lt;font style=&quot;font-size: 16px;&quot; face=&quot;Calibri&quot;&gt;Save the subnetwork&lt;/font&gt;" style="rounded=1;whiteSpace=wrap;html=1;" vertex="1" parent="1">
          <mxGeometry x="850" y="550" width="150.5" height="30" as="geometry" />
        </mxCell>
        <mxCell id="lkaNOGTGJZpjp38PW3jR-23" value="&lt;font style=&quot;font-size: 16px;&quot; face=&quot;Calibri&quot;&gt;Save the subnetwork as an image&lt;/font&gt;" style="rounded=1;whiteSpace=wrap;html=1;" vertex="1" parent="1">
          <mxGeometry x="902.75" y="330" width="145" height="40" as="geometry" />
        </mxCell>
        <mxCell id="lkaNOGTGJZpjp38PW3jR-25" value="&lt;font style=&quot;font-size: 16px;&quot; face=&quot;Calibri&quot;&gt;Enable the Tooltip&lt;/font&gt;" style="rounded=1;whiteSpace=wrap;html=1;" vertex="1" parent="1">
          <mxGeometry x="940" y="480" width="128.5" height="30" as="geometry" />
        </mxCell>
        <mxCell id="lkaNOGTGJZpjp38PW3jR-26" value="&lt;font style=&quot;font-size: 16px;&quot; face=&quot;Calibri&quot;&gt;Switch Graph Layout&lt;/font&gt;" style="rounded=1;whiteSpace=wrap;html=1;" vertex="1" parent="1">
          <mxGeometry x="1010" y="546" width="128.5" height="44" as="geometry" />
        </mxCell>
        <mxCell id="lkaNOGTGJZpjp38PW3jR-27" value="&lt;font style=&quot;font-size: 16px;&quot; face=&quot;Calibri&quot;&gt;Show edge labels&lt;/font&gt;" style="rounded=1;whiteSpace=wrap;html=1;" vertex="1" parent="1">
          <mxGeometry x="1060" y="276" width="128.5" height="44" as="geometry" />
        </mxCell>
        <mxCell id="lkaNOGTGJZpjp38PW3jR-28" value="&lt;font style=&quot;font-size: 16px;&quot; face=&quot;Calibri&quot;&gt;Show legend&lt;/font&gt;" style="rounded=1;whiteSpace=wrap;html=1;" vertex="1" parent="1">
          <mxGeometry x="1240" y="398" width="128.5" height="44" as="geometry" />
        </mxCell>
        <mxCell id="lkaNOGTGJZpjp38PW3jR-31" value="" style="group" vertex="1" connectable="0" parent="1">
          <mxGeometry x="470" y="210" width="593" height="60" as="geometry" />
        </mxCell>
        <mxCell id="lkaNOGTGJZpjp38PW3jR-30" value="" style="rounded=1;whiteSpace=wrap;html=1;strokeColor=#336699;strokeWidth=2;" vertex="1" parent="lkaNOGTGJZpjp38PW3jR-31">
          <mxGeometry width="593" height="60" as="geometry" />
        </mxCell>
        <mxCell id="lkaNOGTGJZpjp38PW3jR-29" value="" style="shape=image;verticalLabelPosition=bottom;labelBackgroundColor=default;verticalAlign=top;aspect=fixed;imageAspect=0;image=data:image/png,iVBORw0KGgoAAAANSUhEUgAABpQAAACWCAYAAADQQWucAAAMTGlDQ1BJQ0MgUHJvZmlsZQAASImVVwdYU8kWnltSIQQIREBK6E0QkRJASggtgPQiiEpIAoQSY0JQsaOLCq5dRLCiqyCKHRCxYVcWxe5aFgsqK+tiwa68CQF02Ve+N983d/77z5l/zjl35t47ANDb+VJpDqoJQK4kTxYT7M8al5TMInUCFGgAChgJ3PgCuZQTFRUOYBlo/17e3QSIsr3moNT6Z/9/LVpCkVwAABIFcZpQLsiF+CAAeJNAKssDgCiFvPnUPKkSr4ZYRwYdhLhKiTNUuEmJ01T4Sp9NXAwX4icAkNX5fFkGABrdkGflCzKgDh1GC5wkQrEEYj+IfXJzJwshnguxDbSBc9KV+uy0H3Qy/qaZNqjJ52cMYlUsfYUcIJZLc/jT/890/O+Sm6MYmMMaVvVMWUiMMmaYtyfZk8OUWB3iD5K0iEiItQFAcbGwz16JmZmKkHiVPWojkHNhzgAT4jHynFhePx8j5AeEQWwIcbokJyK836YwXRyktIH5Q8vEebw4iPUgrhLJA2P7bU7IJscMzHszXcbl9PPP+bI+H5T63xTZ8RyVPqadKeL162OOBZlxiRBTIQ7IFydEQKwBcYQ8Ozas3yalIJMbMWAjU8QoY7GAWCaSBPur9LHSdFlQTL/9zlz5QOzYiUwxL6IfX83LjAtR5Qp7IuD3+Q9jwbpFEk78gI5IPi58IBahKCBQFTtOFkniY1U8rifN849RjcXtpDlR/fa4vygnWMmbQRwnz48dGJufBxenSh8vkuZFxan8xMuz+KFRKn/wvSAccEEAYAEFrGlgMsgC4tau+i54p+oJAnwgAxlABBz6mYERiX09EniNBQXgT4hEQD44zr+vVwTyIf91CKvkxIOc6uoA0vv7lCrZ4CnEuSAM5MB7RZ+SZNCDBPAEMuJ/eMSHVQBjyIFV2f/v+QH2O8OBTHg/oxiYkUUfsCQGEgOIIcQgoi1ugPvgXng4vPrB6oyzcY+BOL7bE54S2giPCDcI7YQ7k8SFsiFejgXtUD+oPz9pP+YHt4Karrg/7g3VoTLOxA2AA+4C5+HgvnBmV8hy+/1WZoU1RPtvEfzwhPrtKE4UlDKM4kexGTpSw07DdVBFmesf86PyNW0w39zBnqHzc3/IvhC2YUMtsUXYAewcdhK7gDVh9YCFHccasBbsqBIPrrgnfStuYLaYPn+yoc7QNfP9ySozKXeqcep0+qLqyxNNy1NuRu5k6XSZOCMzj8WBXwwRiycROI5gOTs5uwKg/P6oXm9vovu+Kwiz5Ts3/3cAvI/39vYe+c6FHgdgnzt8JRz+ztmw4adFDYDzhwUKWb6Kw5UXAnxz0OHu0wfGwBzYwHicgRvwAn4gEISCSBAHksBE6H0mXOcyMBXMBPNAESgBy8EaUA42ga2gCuwG+0E9aAInwVlwCVwBN8BduHo6wAvQDd6BzwiCkBAawkD0ERPEErFHnBE24oMEIuFIDJKEpCIZiARRIDOR+UgJshIpR7Yg1cg+5DByErmAtCF3kIdIJ/Ia+YRiqDqqgxqhVuhIlI1y0DA0Dp2AZqBT0AJ0AboULUMr0V1oHXoSvYTeQNvRF2gPBjA1jImZYg4YG+NikVgylo7JsNlYMVaKVWK1WCN8ztewdqwL+4gTcQbOwh3gCg7B43EBPgWfjS/By/EqvA4/jV/DH+Ld+DcCjWBIsCd4EniEcYQMwlRCEaGUsJ1wiHAG7qUOwjsikcgkWhPd4V5MImYRZxCXEDcQ9xBPENuIj4k9JBJJn2RP8iZFkvikPFIRaR1pF+k46Sqpg/SBrEY2ITuTg8jJZAm5kFxK3kk+Rr5Kfkb+TNGkWFI8KZEUIWU6ZRllG6WRcpnSQflM1aJaU72pcdQs6jxqGbWWeoZ6j/pGTU3NTM1DLVpNrDZXrUxtr9p5tYdqH9W11e3Uueop6gr1peo71E+o31F/Q6PRrGh+tGRaHm0prZp2ivaA9kGDoeGowdMQaszRqNCo07iq8ZJOoVvSOfSJ9AJ6Kf0A/TK9S5OiaaXJ1eRrztas0DyseUuzR4uhNUorUitXa4nWTq0LWs+1SdpW2oHaQu0F2lu1T2k/ZmAMcwaXIWDMZ2xjnGF06BB1rHV4Olk6JTq7dVp1unW1dV10E3Sn6VboHtVtZ2JMKyaPmcNcxtzPvMn8NMxoGGeYaNjiYbXDrg57rzdcz09PpFest0fvht4nfZZ+oH62/gr9ev37BriBnUG0wVSDjQZnDLqG6wz3Gi4YXjx8//DfDFFDO8MYwxmGWw1bDHuMjI2CjaRG64xOGXUZM439jLOMVxsfM+40YZj4mIhNVpscN/mDpcvisHJYZazTrG5TQ9MQU4XpFtNW089m1mbxZoVme8zum1PN2ebp5qvNm827LUwsxlrMtKix+M2SYsm2zLRca3nO8r2VtVWi1UKreqvn1nrWPOsC6xrrezY0G1+bKTaVNtdtibZs22zbDbZX7FA7V7tMuwq7y/aovZu92H6DfdsIwgiPEZIRlSNuOag7cBzyHWocHjoyHcMdCx3rHV+OtBiZPHLFyHMjvzm5OuU4bXO6O0p7VOiowlGNo1472zkLnCucr4+mjQ4aPWd0w+hXLvYuIpeNLrddGa5jXRe6Nrt+dXN3k7nVunW6W7inuq93v8XWYUexl7DPexA8/D3meDR5fPR088zz3O/5l5eDV7bXTq/nY6zHiMZsG/PY28yb773Fu92H5ZPqs9mn3dfUl+9b6fvIz9xP6Lfd7xnHlpPF2cV56e/kL/M/5P+e68mdxT0RgAUEBxQHtAZqB8YHlgc+CDILygiqCeoOdg2eEXwihBASFrIi5BbPiCfgVfO6Q91DZ4WeDlMPiw0rD3sUbhcuC28ci44NHbtq7L0IywhJRH0kiORFroq8H2UdNSXqSDQxOiq6IvppzKiYmTHnYhmxk2J3xr6L849bFnc33iZeEd+cQE9ISahOeJ8YkLgysX3cyHGzxl1KMkgSJzUkk5ITkrcn94wPHL9mfEeKa0pRys0J1hOmTbgw0WBizsSjk+iT+JMOpBJSE1N3pn7hR/Ir+T1pvLT1ad0CrmCt4IXQT7ha2CnyFq0UPUv3Tl+Z/jzDO2NVRmemb2ZpZpeYKy4Xv8oKydqU9T47MntHdm9OYs6eXHJuau5hibYkW3J6svHkaZPbpPbSImn7FM8pa6Z0y8Jk2+WIfIK8IU8H/ui3KGwUPyke5vvkV+R/mJow9cA0rWmSaS3T7aYvnv6sIKjglxn4DMGM5pmmM+fNfDiLM2vLbGR22uzmOeZzFszpmBs8t2oedV72vF8LnQpXFr6dnzi/cYHRgrkLHv8U/FNNkUaRrOjWQq+Fmxbhi8SLWhePXrxu8bdiYfHFEqeS0pIvSwRLLv486ueyn3uXpi9tXea2bONy4nLJ8psrfFdUrdRaWbDy8aqxq+pWs1YXr367ZtKaC6UupZvWUtcq1raXhZc1rLNYt3zdl/LM8hsV/hV71huuX7z+/Qbhhqsb/TbWbjLaVLLp02bx5ttbgrfUVVpVlm4lbs3f+nRbwrZzv7B/qd5usL1k+9cdkh3tVTFVp6vdq6t3Gu5cVoPWKGo6d6XsurI7YHdDrUPtlj3MPSV7wV7F3j/2pe67uT9sf/MB9oHag5YH1x9iHCquQ+qm13XXZ9a3NyQ1tB0OPdzc6NV46IjjkR1Npk0VR3WPLjtGPbbgWO/xguM9J6Qnuk5mnHzcPKn57qlxp66fjj7deibszPmzQWdPneOcO37e+3zTBc8Lhy+yL9ZfcrtU1+LacuhX118Ptbq11l12v9xwxeNKY9uYtmNXfa+evBZw7ex13vVLNyJutN2Mv3n7Vsqt9tvC28/v5Nx59Vv+b5/vzr1HuFd8X/N+6QPDB5W/2/6+p92t/ejDgIctj2If3X0sePziifzJl44FT2lPS5+ZPKt+7vy8qTOo88of4//oeCF98bmr6E+tP9e/tHl58C+/v1q6x3V3vJK96n295I3+mx1vXd4290T1PHiX++7z++IP+h+qPrI/nvuU+OnZ56lfSF/Kvtp+bfwW9u1eb25vr5Qv4/f9CmBAebRJB+D1DgBoSQAw4LmROl51PuwriOpM24fAf8KqM2RfcQOgFv7TR3fBv5tbAOzdBoAV1KenABBFAyDOA6CjRw/WgbNc37lTWYjwbLA56mtabhr4N0V1Jv3B76EtUKq6gKHtvwBrXYMyn9YgfAAAAIplWElmTU0AKgAAAAgABAEaAAUAAAABAAAAPgEbAAUAAAABAAAARgEoAAMAAAABAAIAAIdpAAQAAAABAAAATgAAAAAAAACQAAAAAQAAAJAAAAABAAOShgAHAAAAEgAAAHigAgAEAAAAAQAABpSgAwAEAAAAAQAAAJYAAAAAQVNDSUkAAABTY3JlZW5zaG90JqPWagAAAAlwSFlzAAAWJQAAFiUBSVIk8AAAAddpVFh0WE1MOmNvbS5hZG9iZS54bXAAAAAAADx4OnhtcG1ldGEgeG1sbnM6eD0iYWRvYmU6bnM6bWV0YS8iIHg6eG1wdGs9IlhNUCBDb3JlIDYuMC4wIj4KICAgPHJkZjpSREYgeG1sbnM6cmRmPSJodHRwOi8vd3d3LnczLm9yZy8xOTk5LzAyLzIyLXJkZi1zeW50YXgtbnMjIj4KICAgICAgPHJkZjpEZXNjcmlwdGlvbiByZGY6YWJvdXQ9IiIKICAgICAgICAgICAgeG1sbnM6ZXhpZj0iaHR0cDovL25zLmFkb2JlLmNvbS9leGlmLzEuMC8iPgogICAgICAgICA8ZXhpZjpQaXhlbFlEaW1lbnNpb24+MTUwPC9leGlmOlBpeGVsWURpbWVuc2lvbj4KICAgICAgICAgPGV4aWY6UGl4ZWxYRGltZW5zaW9uPjE2ODQ8L2V4aWY6UGl4ZWxYRGltZW5zaW9uPgogICAgICAgICA8ZXhpZjpVc2VyQ29tbWVudD5TY3JlZW5zaG90PC9leGlmOlVzZXJDb21tZW50PgogICAgICA8L3JkZjpEZXNjcmlwdGlvbj4KICAgPC9yZGY6UkRGPgo8L3g6eG1wbWV0YT4KQoqNOQAAABxpRE9UAAAAAgAAAAAAAABLAAAAKAAAAEsAAABLAABCWAfaxjgAAEAASURBVHgB7J0HnBRF9scfGZYl57jknFFBRIISTBjOv55nQFHPgJjzGVBQUQ8xBzDndOoppySRKAICkiRIXHJY2CXskuH/fjX0bM3szOzO7MzuhF/5caenu7q76ltV3UP96r1X5IQmYSIBEiABEiABEiABEiABEiABEiABEiABEiABEiABEiABEiABEiABPwSKUFDyQ4a7SYAESIAESIAESIAESIAESIAESIAESIAESIAESIAESIAESIAEDAEKSuwIJEACJEACJEACJEACJEACJEACJEACJEACJEACJEACJEACJEACAQlQUAqIhwdJgARIgARIgARIgARIgARIgARIgARIgARIgARIgARIgARIgAQoKLEPkAAJkAAJkAAJkAAJkAAJkAAJkAAJkAAJkAAJkAAJkAAJkAAJBCRAQSkgHh4kARIgARIgARIgARIgARIgARIgARIgARIgARIgARIgARIgARKgoMQ+QAIkQAIkQAIkQAIkQAIkQAIkQAIkQAIkQAIkQAIkQAIkQAIkEJAABaWAeHiQBEiABEiABEiABEiABEiABEiABEiABEiABEiABEiABEiABEiAghL7AAmQAAmQAAmQAAmQAAmQAAmQAAmQAAmQAAmQAAmQAAmQAAmQQEACFJQC4uFBEiABEiABEiABEiABEiABEiABEiABEiABEiABEiABEiABEiABCkrsAyRAAiRAAiRAAiRAAiRAAiRAAiRAAiRAAiRAAiRAAiRAAiRAAgEJUFAKiIcHSYAESIAESIAESIAESIAESIAESIAESIAESIAESIAESIAESIAEKCixD5AACZAACZAACZAACZAACZAACZAACZAACZAACZAACZAACZAACQQkQEEpIB4eJAESIAESIAESIAESIAESIAESIAESIAESIAESIAESIAESIAESoKDEPkACJEACJEACJEACJEACJEACJEACJEACJEACJEACJEACJEACJBCQAAWlgHh4kARIgARIgARIgARIgARIgARIgARIgARIgARIgARIgARIgARIgIIS+wAJkAAJkAAJkAAJkAAJkAAJkAAJkAAJkAAJkAAJkAAJkAAJkEBAAhSUAuLhQRIgARIgARIgARIgARIgARIgARIgARIgARIgARIgARIgARIgAQpK7AMkQAIkQAIkQAIkQAIkQAIkQAIkQAIkQAIkQAIkQAIkQAIkQAIBCVBQCoiHB0mABEiABEiABEiABEiABEiABEiABEiABEiABEiABEiABEiABCgosQ+QAAmQAAmQAAmQAAmQAAmQAAmQAAmQAAmQAAmQAAmQAAmQAAkEJEBBKSAeHiQBEiABEiABEiABEiABEiABEiABEiABEiABEiABEiABEiABEqCgxD5AAiRAAiRAAiRAAiRAAiRAAiRAAiRAAiRAAiRAAiRAAiRAAiQQkAAFpYB4eJAESIAESIAESIAESIAESIAESIAESIAESIAESIAESIAESIAESICCEvsACZAACZAACZAACZAACZAACZAACZAACZAACZAACZAACZAACZBAQAL5EpSWrtkm439bIX+s2CxbduwJeCMeJAESIAESIAESIAESIIFwE6hdvYJ0bFFHzjm9hbRpXDPcl8/T9Y4ePy4ZBw7JvoOHJPPwETl09KgcO34iT+cyEwkkOoFiRYtIqeLFpWzJElKudCmpWKaUFC9aNKqwcIxHVXNETWHYd6OmKVgQEjAEOCbZERKdQCyMgURvo3ipf8iC0shPpsqP05fFCwfWgwRIgARIgARIgARIIMYJnN+jldx3da8Cq0WWikfb92XKzv1ZBXZP3ogEEoFAteQkqVGurCSpyFSYiWO8MOnH5r3Zd2Oz3Vjq+CXAMRm/bcua5Y1AtIyBvJWWuWKFQEiC0n0vjZX5yzaaOl7er4P06dJMmtStIkWKFImVerOcJEACJEACJEACJEACMU7gxIkTsnrTLvl5zl/y1cSFpjadW9WTkXcNiHjNNqbvk61790X8PrwBCSQygVrly0m9SuUKBQHHeKFgj5ubsu/GTVOyInFCgGMyThqS1QiZQGGOgZALzROjlkDQgpJjmVRH3YsMvbm/NK1XNWorx4KRAAmQAAmQAAmQAAkkBoFVG9PkydETZLO6YY6kpRIsFtbuyhB8MpEACUSeAKyUGlWpWGDWShzjkW/TRLkD+26itDTrGSsEOCZjpaVYzkgRKOgxEKl68LqFTyAoQQkxk25/7ltT6jGPXU4xqfDbjyUgARIgARIgARIgARI4SQCi0k3DvzLfXn3wb2GPqbTv0GH5a8cuxkdijyOBAiaAmADNqleRcqVKRvTOHOMRxZuQF2ffTchmZ6WjmADHZBQ3DotWIAQKagwUSGV4k0IjEJSg5Fgnwc3drf/XrdAKzRuTAAmQAAmQAAmQAAmQgC8Cb/5nlnF/F24rJVgtLN+eRjHJF3TuI4ECIIAJkJY1qkbMUoljvAAaMUFvwb6boA3PakctAY7JqG0aFqyACER6DBRQNXibQiQQlKB01aOfyhZ1I0LrpEJsMd6aBEiABEiABEiABEjALwHHSqm2umf+9Kmr/OYL9sDSrTvp5i5YaMxPAmEmAFctbWpVC/NVXZfjGI8IVl70JAH2XXYFEoguAhyT0dUeLE3BE4jkGCj42vCOBU0gKEGp901vmPL9MvpWKVKkSEGXlfcjARIgARIgARIgARIggYAETpw4IWfd/KbJM2XM4IB583pwY/o+2bp3X16zMx8JkEAECUQiqDTHeAQbjJd2E2DfdaPgBglEBQGOyahoBhaiEAlEYgwUYnV46wIkEJKgFK5/nBdgPXkrEiABEiABEiABEiCBBCHgLIIKx29WuMGC5QITCZBA9BCAlRJW1oYjcYyHgyKvkVcC7Lt5JcV8JFAwBDgmC4Yz7xK9BMI5BqK3lixZuAlQUAo3UV6PBEiABEiABEiABEigUAmEU1BatytDdu7PKtT68OYkQAKeBKolJ0nDKhU9d4b4jWM8RHA8LSQC7LshYeNJJBAxAhyTEUPLC8cIgXCOgRipMosZBgIUlMIAkZcgARIgARIgARIgARKIHgLhEpSOHj8uCzZui56KsSQkQAJuAp3q1ZTiRYu6v4eywTEeCjWek18C7Lv5JcjzSSC8BDgmw8uTV4s9AuEYA7FXa5Y4PwQoKOWHHs8lARIgARIgARIgARKIOgLhEpTSMg/I2rT0qKsfC0QCJCDSqGolqVq2TL5QcIznCx9PDpEA+26I4HgaCUSIAMdkhMDysjFDIBxjIGYqy4KGhQAFpbBg5EVIgARIgARIgARIgASihUC4BCW6woqWFmU5SCAngXC4aOEYz8mVeyJPgH038ox5BxIIhgDHZDC0mDceCYRjDMQjF9bJPwEKSv7Z8AgJkAAJkAAJkAAJkEAMEgiXoLR0607JOnwkBgmwyCQQOQL79+2VrMwsOZCVaW5SJqmsJJVNkuRy5SN3Ux9XTipZQhBIOj+JYzw/9GLvXPbd2Gszlji+CXBMxnf7sna5E4inMZB7bZkjnghQUIqn1mRdSIAESIAESIAESIAEJFyC0vyNW+XY8RMkSgIJTeDIkSOydMF8mT97lqz8c6kcP3bcJ4+ixYpKizZtpVPXbtKmYycpUaKEz3zh2lmsaBHpXK9Wvi7HMZ4vfFF/Mvtu1DcRC5hgBDgmE6zBWd0cBOJ5DOSoLHfENQEKSnHdvKwcCZAACZAACZAACSQegXAJSnNTtyQePNaYBE4SOHjggIz/77cyZ8Z0OXzoUFBcSpUuLaf37C39LrxIsB2pdFpK7XxdmmM8X/ii9mT23ahtGhYsQQlwTCZow7PabgKJMAbcleVGQhCgoJQQzcxKkgAJkAAJkAAJkEDiEKCglDhtzZqGn8DxY8dk5uSfZdKPP0jWfpdbu1DvklyunPS/+BLp2qOXFC1aNNTL+D2PgpJfNAl5gH03IZudlY5iAhyTUdw4LFqBEEikMVAgQHmTqCFAQSlqmoIFIQESIAESIAESIAESCAcBCkrhoMhrJCKBtB3b5YM3XpOtGzeGtfp1GzSQQbfdIRUrVw7rdSkohRVnTF+MfTemm4+Fj0MCHJNx2KisUlAEEm0MBAWHmWOeAAWlmG9CVoAESIAESIAESIAESMAmQEHJpsFtEsgbgYW/z5Uv3ntHjhw+nLcTgsxVJqmMXHnjzdKqfYcgz/SfnYKSfzaJdIR9N5Fam3WNBQIck7HQSixjJAkk4hiIJE9eO/oIUFCKvjZhiUiABEiABEiABEiABPJBgIJSPuDx1IQkMHv6NPn6w/cLpO6DhtwubTp2Dsu9KCiFBWNMX4R9N6abj4WPQwIck3HYqKxSUAQSdQwEBYmZY54ABaWYb0JWgARIgARIgARIgARIwCZAQcmmwW0SCExg/epV8vrzI+T4seOBM4bpaImSJeXORx+XWnXq5vuKFJTyjTCmL8C+G9PNx8LHIQGOyThsVFYpKAKJPAaCAsXMMU+AglLMNyErQAIkQAIkQAIkQAIkYBOgoGTT4DYJ+CeQkZ4uo554TDL37/efKQJHKmgspfueGCZJZZPzdXUKSvnCF9Mns+9uien2Y+HjjwDHJMdk/PXq4GqU6GMgOFrMHesEKCjFeguy/CRAAiRAAiRAAiRAAh4EYk1Qyth7UE6cOOFRB3xJKlNCSpUsnmN/OHbs3X9Qjh1z3bNihTJSJIiL7tl3UI4fd51bSc+1U8beA1oX157y5UpJsaJF7cNRtb0/85AcOeqyyokk66iqtFdhPntnjMz/bZbXXs+viH10IOuA585cvuXlnJ79+suFf/9HLlcKfDgWBKVDh49K1oEjHhXxHjceB09+CfU8X9cKtA/32bg1XbZs2yOlS5WQOjUr6P8VfZ5ilwnPJowbf+mYWrzt3X/IHC5WrKiUTy7lL2tI+9l3C2fy+vCRY7Jh825J33NA9mcdlIrlk6RyxSSpXaOilCgevc/7kDpZgJOOHD0m+zNd8eZyGwsBLhNXhzgmC2dMohNhXGZmufpjXt4v8dTxDh46IgcOHjVVKptUUkqWKFZo1Uv0MVBo4HnjQiFAQalQsPOmJEACJEACJEACJEACkSIQa4LSUy+Pk30nJ169mSSVKSnVqiZLj65NpU2zWt6HQ/7+0ju/yNbte835T953gU4k5124GvHaBMnQyUSk5x652Hw6fx557gc5elKkueufvaVW9QrOoUL73KST5VUqJUuZ0p6T3+9+MUv+WrPDlGtAv7bS/dTGhVbGwrjxjm3btP0eCnjrlu3ayVX/vEXeHPmcbE5NDZjXOVgnJUVuve9BwcTKskULnd0+P4eOelnKVwi9j8SCoDR7wTr5btwij/rfMvBMaVivisc+7y9f//iHzFvoyXzEwxdJ0aLByL/eV83+jgnIL36YL8tWbs0haNetXVH+fuEpUr2KpwWZXZfTOjaQS8/rkH1Br62NW9Lltfenmb243u2DennlCP0r+67I3NSCnbzOPHBYpvz6l8xblKqTt54CKVqybNlS0v20RtKtc+Og3ieh94KCORMLKDBhXaNqOY8bLtVx8/F/5ph9XU9pKJf0b+9xPNG+cEwW/Ji0+9iPk5fK9Nmrza68vF/sc2N9e/y0ZTJl5l+mGldcdIp0bJN/d7qhMOEYCIUaz4llAhSUYrn1WHYSIAESIAESIAESIIEcBOJJULIr16Zlbbnmb6fZu0LeTgRBaXdGloybskwWL9skDw3pJ5UqJHnwSnRB6f3XXpalf/zhwcT+0rh5c7n5nvulWPHiaqGUJa8/94xs3bTJzpJju1bdunLbg/+SMklJcuzoURnz4khZvWJFjnzOjq49e8plAwc5X4P+jFVBqXP7FLn8go5+6wvrh+EvjZNDh1yrrp2M4RKUsJL9vS9nyaYtGc6lc3yWUpF58LU9pGa18u5j0SIose8W7OT1tp175YOvZku6PlNzS9VUhLzxyu5quVQ6t6xRffygjr0pv/0lv85dIxef015OaVffo7wUlDxwCMdkwY5Jmz6sQZ9+ZbzbQqlj23pyxYWd7SxxvR0tghLHQFx3M1bOBwEKSj6gcBcJkAAJkAAJkAAJkEDsEohlQQmr/our2yC4jdufdUg2bNote9SNnJMuUYuArponvykRBKVX3psqm7e6JswpKHn2mD0ZGTLs3rs8d3p9e+LFV6Rc+WwxIStzv4pKz8q2zb5FJYhJgx94yCMu0r69e+WJu+/wurLn1xFvjJaSpUJzhxarglJJdRf32F3n+nXN88fSTfLF9/M8Qem3cAlKv8z6Syao2IoEK8j+vVupcFRO1uvzZs6C9bI7PdMcS6lXWQYP7GG28ScaBCX2XVdzFJSFEix0Xhwz2cMqqXHDatKwfhVJTiolcHO6Zv1O2bg53d1PKqp4P2RQTymnVkuxmmyLj8sGdKKgFKAhOSZdcApqTHo3xaLlm+Wzb3937y5evJg8euc5Oayy3RnibCMaBCWOgTjrVKxOnghQUMoTJmYiARIgARIgARIgARKIFQKxLCg9fs95UlYneJ2E2Er/nbhYZs9bZ3ZhEu+Wa850Dof8GSlBCbFiTuh/SHAxV7RIeNxzhVLR3AQlxIM5qit7kUqWKJ5Q8T9+nTJZvv3k44BY6zdqZCyUSpfJjpO1f99eeXXE05K2fbvHudVr1VLLpIcluVy2AHXwwAEZPerfsmHtWo+83l8GDbld2nQMbTV1rApKYHC5riDvrCvJfaUxn/0qa9btzHEoXILSW5/MkHWpu8z1b7yymzRtWN19LwgEr38wTerWriQX9WunlibZ7R8NghL7rqupCmry+p3PZ8mqtS7XoIiFdf0/TpcmKdXc/cXZWLx8i3z67Vznq5zWSV0intvB/T3WNigo5b3FOCZdrApqTHq3jK/3xUX920m3Uxp5Z43L79EgKHEMxGXXYqVyIUBBKRdAPEwCJEACJEACJEACJBBbBOJJUAJ5BLZ/WuMsIcGaYKiKTvlN/gSl4ypg5SYCBYqhFEy5IJYhFQlSdDp2/LgUK5p78PfcBKVgyoq8cCuDCdVQ0/HjyjaI+Dd5rWco5RmjQs/KP//M9dTa9evLbQ88LLaotHfPHuP+zhGVqtaoIbc//EgOMen150fIlg0bcr3Hqd27yxWDbsw1n68MsSYoValcVnbtdln/NGpQVW6+qnuOakHQefa1iSauUeVKZY2bMWes5CYo5WX84oZPvPCj2+LkkTvPlfLJnpYkiJHjHXMM50WDoMS+i5YoGPda6zbukrc+muG6of694mKNT9Laf3yScVOXyVSNs4SEZyUsQ8sn+3d9F+ozFW+OE0E+T02hgviTH0Ep2Gc9ioWxi5Tb+9dk8vEnt3vi+njXRmKJB8ekq0EKQ1CCa9/nXp9oClBdrUzTdmXKcf2NVKtGebnrxrN89JTI70JfLKK/dULpa3npp97vuWAEpdzGSah0OAZCJcfzYpkABaVYbj2WnQRIgARIgARIgARIIAeBeBOUEMth6Mj/mXrCVdbw+y8w29+OWyip6qIK6drLukrlip4xglarG6Kxk5aY4/Cp36trU7ONP96C0prUnTJj7moTUwWiVfPGNaRNi9rSvFG25YJzciBB6UMNUu64y7rtup45XHrBKugXnXBcv2mXbNm2R44ePS6VKpbRIMr15IxTGqtgVsK5jfsTgtq02X+Z/NvT9klm5iEpX660VNMg6b27NZOmDbJXy2/eliFfjV1gzt22Y6/7GogHgxhKxYoVkTuu7232T/51pcZX2my2sZq3Uf2q7vzOxmJ1JfPb/HWyWct6SAOzY5IdlhtnnNpIWjap6WRzf9rM27euI106NJT/abDs1et2yF51HVVBrT2aKtPzzmrtYYnmXGBNapryWWnqmnXgsFTXOtavW1lO65AiKXUqO9ny/XnvDdfl+Rp1UlLk1vseNHGRnJMgKr064ikVyIqamEnlK1RwDklWZqa89cLzsjk11b0v0EaFSpXk8ZEvBsri91isCUqndkxR92Bp7jHy0JD+2i+zLYBQUfTLiVOXmzr369VSJk1bYcQl7PAlKO3XeEjoMxs275at2/dIiRLFpHbNijqGq0uP05r4FGxtq5Oze7SQfme2MPfL7U80CErsu65WKojJ62/0HTN3wXpzw7xYHGGi98sfFkjN6uVUeKrvM45SsM9Up09uUvels/RZvH3nHtmRtl/fHccErvXwPO7Xo6VUU7HWTlt37FG3kfPNrmb6zD3/7Db2YbP9sVpUpe3ab7YRL6yUvl/xboS2Y78/kKFmdZf15d/VsrB2jQriHUMJZYAIhWf9nr25P+txzQzNN1Pfu0tWbDGubbG2AnVq16qOnHlqY0n24TLwY3VtlrZrH06Xm67ubsb9FHVhuXFzhpQsWUw6a6ynC/u2NccP6jtr2uzVsvDPTZKx54A5Xk95wdIZvwfys0DC3ODkH45JF4iCGJM2d2zbIu5F57RTa8KdsuyvrSYb3E6ivZ2E319vfjTd9G+0/W3a5+0+sHz1Nhl/0hVqX+3PbZrXck4176A3VFw+rNdAuuEfZ3gsRIDbPfTjHRpvLU0XTUC8rFIpyfyWPLt7cyldyvO3HeKTLVTXrkjn6disXLGs/KTjB79FITQ31t91V1x0iiTpby6kLF3kMG9Rqvyl1pLrNqTp2CgtjVKqygV92pjfrlNmuoRsnNOxTbbojWfS/MUbZda8NbJTxzoEpdo1K0iK/q7q0aWpVNDfkuFIHAPhoMhrxBoBCkqx1mIsLwmQAAmQAAmQAAmQQEAC8SYozV2YKt/8+Iepc706lWSICjVI9qTwvbf0keoaDN1OS1ZulU9U4EE647TG7kkmfLcFpT46ofzz9BXYnSP5cssVSFB6YfRknexzTXYNU+ELE3ROghj0sZYH/6j3lWC9cZNabDgutrBee86CdTJOJzgO6mSCv3RmlyZmUgHHvVfUe5+DyZNnHrrQ7P5u/CKZrROUSNde3lVaNfUUiCZMWy6/zFxpjvv6M6BfW+muk352sicZW6sgt0GFs30qiHmnChqw/p6bzvaYZJm/ZKN89YNrAtQ7P+JqXXnJqdK6WfYEj3eevH7P2L1bRcl78prd5IOlEkSlpLLZk7a70naqpVgxqVg5W+iCmPTmyOfyZJlkF+DZt95WIcRzwsk+7m871gQlxEirqAKSIxj16dlC+nb3FHOee2OSEZwwIffw7f1lxKsT/ApKW1RA+uCr2R5x1mxWTTTWzVWXnJZDqJ06e5WMm5xtodauVV3pc2ZzqaECZqBU2IIS+2526xTE5PUz2vecGH54/rRXoSM/KZRnKibBcd6s39e6x4F3GSBsX3nJKdJWn7lOSlWB9Y0PppuvbbXcV2v5vdOLb//iFo6euPd8s2DgoWe+93sfnD/4uh5G3M/5rN+tz/qD3rfQRQQ5n/XIlL4nSyf3Z7j5ep9YTd/ncG/rLSrZ7+6+PVuad7djwYhr9DqjmZzbq5WA2+sfTpft1sIK+x5Y2DDw/7rkWPRh58nLNsdkNqWCGJPZd1OrNhVHMEbR7/Db5hGNm7RWF6V88o3L9SQWMPzfeR3tU+Q1dWfqxDuDINlYRRknfa4C7MKlG83XNi3ryDV/yx4zm7amy6vvTTPHqlVNlvtu7mO2YSH13fiF8teaHc5lcnyWTSqpMdV6eSx6+kEXO/06d43Ji99w8xdvECyicRIW0kDwQjqi4vHoT2a6y+3kwWclXUiFvItOilPegtJX/1sg8xf5tpSGeHvjlWfkEKPt6+dlm2MgL5SYJx4JUFCKx1ZlnUiABEiABEiABEgggQnEsqB0tU7wlFZrGqzQxIrs9epyCBYNcGGCdLZO+mIlNFK4BCVcC5PXEKsQRB1WMo6Ag4m6QVd0lWZWjJVQBCXEKvr3m5PMKmncD5NkrXT1K+qJ1bQHNPYSkj2JsFcnSV55d4oRZFA+TI7XqVXRuI1bsWqbseIxJ+mfGzQODMqIAPJLVrisjsZOdFlnIU/3Lo2NhRLcCTlxBQIJSr/MWikTprisRCDmNKhXReqo1cfGLenGKgzlRrr0/I7Gesh80T/2JCP2odxwbdZAJzzS0jPdkx44ZgthmBh6XK3Qjhw5Ztwanq+rbiEQblbBAJMuEOGwqhZWX8V14ig/aeO6dfLSU08GfYmadeqaOEm2qGRfJHP/Pnnj+edk22bXqmP7WG7bDz79rFSv6Sno5XYOjseioNRHrYEckQgu7R4c3NddVVjuvfmhy8VYM7UwuuGKbmJPcNsWSoe1rzyrro5gsYeECWKMEaQlulp805YMs32KWrddpv3UTuhvn/13nsln78c1YPVnTzLax21BCdZ2tdRSw186cPCwpG50WVDWrV1RbtcJxfwm9t1sgpGevIZI8a9nfzCT1rjrfbf2zdfEa6jP1FVq8fPu578ZkaeUWjk0baTvAX0W7t13yLw7HMELlrX33Hy2eYehvKEKSr+qJQMslH5SwdV5zuPZC8sfpHYt6xrLDO9nPY5hEUEttWTauXu/32c98uE9BUuRdJ2MR8KkOMYexiUsnGBNhASrqJuvPtNDELYFJZNJ/5RTl5V4V+P98eBtfc1ChV/UamnCSWuTDmoBfGqH+ub4ijXbTUxGvJuuuLizdFAxOT+JYzKbXqTHZPadXFt2H2ytv6cgEOK31lMvjTMuTWHR/qiKTPbCHrtf9NJn/bm9W5mLwZJn2Is/uX+L4dwn1L2yY8FkW8726tZUz2ttzps4fblMnuFaeIPFErAsqqGu9zZt2SMrta/BshsppV5lGTzQJRDhuy0o4TsS7onfhhgXtwzsrr+bqhhXkB/9Z64sP2l1hXy4fo1qFfT3cZqx/MY+J9mCkv0MwDuod7fmZizhPTvl11XG2qpr54ZyyTntndND+uQYCAkbT4oDAhSU4qARWQUSIAESIAESIAESIIFsArEsKGXXIucWJrVgneT8Az9cghJcZMFaxnGZh4kFrHD9Uy2ckLx98YciKE2bs0p++tllEYF/2N92bU93PCGsPsVKccSWwYQC3LQ4lhIQcL756Q+5RIO7e7t8+37iYrNqHWXs3L6+XH5BJ2y6U24xlPwJSvYkBMpz68AzjYsj58Jr1d3KO5/NMpONmJSDdZjjbsme4EF+bwuU6XNWy48/LzWXQnveeUNvsw3rrVGjJ5vtbupO76J+7cw2/mTqql24IzxLJ0NKalvlNy1btFDefeWlkC4DUWnwAw9K2WRPSxaISa89+4zs2OrqM8Fe/OZ775dmrVwTVMGcG4uC0qXndZD3vpwtK9W9ENIt2r8aqmCJ9LVaIs5Ti0Skqy49TdrpBLU/Qcm2MnKsEsyJ+gdj+GMdw8t0DCNu1z26mtzpo3YeuOj6bd4698S5cwzCLtwyOuVy9tuCkrMvL5/hEpTYd7NpR3ryep8KlZiYRsJzEBanRbJvH9RWfp6puNHM39eYyen/O79TDhdVo/Td4Vjh2Ba19j2DsVByKhZMDCWcA7epzmIFfPf3rMcx+90NsecfF3XGbpMwdmF1uHL1dvMd7mqvUDd7TvIWlK77e1e3+1W8K8qqsIYE13hLVVhGevzu8wRWIk6CNSzcxtruYp1jwX5yTGYTi/SYzL6Ta+u9L39z95NrVExyXNTZriq9F71sU5d0L475xVygTq0KbhfAWEg0Rq2A7DToitOlhbo/RnpDBVBngYBjpYf9sCT/VPsaLMv7q2VcCV2A4yQ8Q555ZYJ7QRQsbh0LdG9BCdZ2Z6l1HRb92P0YgjJ+byFBNL3+H6d79NuJM1bIZMvC3haUZs1fK9+PX2zOvVrfp7YFo1mwpcKSt5W5yRzkH46BIIExe9wQoKAUN03JipAACZAACZAACZAACYBAvAlKsJDBRJWzutJpZXtSKj8u7+xJA+fasH4Y+dYkdcdz0ExIYzKxRHGXmBGKoDRy9M+yU+NeIGEVuSMYOffDilHExYBLJXs1rXPc16c9MeJrwjpUQek/KmD9/odrUh8xCbp1bpTj9vaqXHsy3xaUsNIWLmjsIOv+4mGBN+JkYYU6BD64KGyvLmcQqyPcacWSxfL2S6NCumwgQSlU6yQU5J933SMt2maLaHktXKwKSrY7ys7tU1QM7Wjc+gzXCfxDGjMNk7+P3HGOEY/9CUoj39IxpZZrpTXGxFCdMIZwZCfEE3vl3almly/3jE5eWEtM1XgWc7XPIy6NkyBcX6Uuj2w3i4UtKLHvOq0jEunJ60yNzQWLBaTi+uwf/sAFHs+y7JLkvpWfZ2puV4dF0Q8TXNaoPbo2ccdKKkhBCeLMwxoPzR6D/p71iJs04tXxplpwh/fA4H45rE7hru6pl8cbCwqwf+yuc43lMk6yBSXvBQs2K7iKnapWSkgQiM/UdwpiSXnHsrHPCWWbYzKbWqTHZPadEH/rgDz72kRjuQfrPFgiOYuNbEtXX7+NYNkKKyAsiEHfwvtm7M9LZOacNcbtI36DIOZjl04N5G+6mAd9+clRP5rfJ/hdg3vh3Lykj7A4SWMrIV3399NV/HQJVLagBCvum9Xdsa9kW0b1762iky6s8U6jP50pa9WSH8kWlFZqvKX3PneJUbCohWVVq6a13KKW93VC/c4xECo5nhfrBCgoxXoLsvwkQAIkQAIkQAIkQAIeBGJZUDqvT2u1QnHFHSpbppQJalylUrJ7MsmuaK6Ckv4j3vGl7y+GEibAht0/wGNVqXOPT777XZYsc61wvvXaM437ERwLVlCCSPLIc2PNKtVyyaXNZIRzj7x8Irj6Qi0HJkAQZNyOF+H47YfLoIdu6+dxuVAFpVffn+p2F3b3TWdJzWrlPa6LL/aq2eY6QXK9TpQg2YJSAw18fus1Z5r99h+4toNogAmZZ/91kfvQNz8t1En99e7v2AAvXP8MFRTDJS5t3pAqo54c6nGfvHzJzeUd4ie9/tyIkFze3ffkcKlVt15eiuGRJ1YFpWPqwvJpXbkNd3Ww/sCkHiwCv/h+nqkfXDQO6NPWbPsSlGDF8MizrjGFyWz0Ee+UpW4knYm8rqeoW5/+gd36YFX4nD/WyQydVMxSMQEJK8KHDOph3D3iuy0owXJiQF9XGXHMO0HQevfkynJfk5re+fPynX03m1KkJ69hefCIurxz3L75exZml8j/Vn6eqbgqnvmr1u+U5erqFK5QD6vg4qS1qbvcQqgjzuJYXgQl27rJiaHkXDcYC6XmTWrqO6Crc6r709ezfrlaHn2gliVIcJE3UC0nfCXEP9qwabc5BKvderUrmW1bULrjhl7usel9DVi9vqHXcNzX4jje93X1Op3a1FUXfilhsXjlmMwmH+kxmX0nEdsyx9fz3YnFh3PuvLG3x+8HW8xxYqM5IlP71nXN7805C9YbK7Z/6cIG/K5x4nH6cqGKBTFL9PcmXDTv13fa0WPZCxOc32goh21BaJcBLn57aBwlX+lDjbsJS1uk26/vJXXV7bF3st342YISrN9f15hRW7fv9TgFMaBaN69tfleV199Y+U0cA/klyPNjlQAFpVhtOZabBEiABEiABEiABEjAJ4FYFpQeV5/1jssan5WzduYmKM1WceI7FSmQ/AlKVSqXlQc0NoavNGnmCvl52gpz6JJz20vXTg3NdrCCUrrGg3j2tQnmXG8/+r7ua++zV6fa+723wyko2YHon3n4Qimmk+reyV5lbruuswWlThpz4+8DPN3w4TrD1AoFQgIm9xATx0kQCX6eudLETLInAZ3jZ2n8rP4n42c5+0L53Ld3rzxx9x1BnVonJUVuufcBseMn7d7lWhFcuUp2UG+ISm+OfE62bNgQ1PWHvfxqDjd6eblArApKqNv/1PXhDHWBiISJtvlLNsiadTvNd3vy3pegZI8pc0Iuf1o1qyXXXtYll1yuw7BY+vDr32Tz1j1mhx23zRaUTuvYQOC+z1+Cu8rX3p9mDodLUGLfzaZdEJPXz2vcO7giRbIng7NLkbet/DxTIWh9qDFUHBeRge4YrKAEK6B9KlAh5UdQ8jXJjmv6etb/vihV/vO/P3BYbOtWs8P6Y7u/vPbyrmpZUdMctQUl24WYdap7E6Lu2ElLZN2GXe59zkbFCkkan6m729Wtsz/YT47JbGIFMSZxNwisI9Q6yYkfhud7vTqeQsus39e5+7a34LQ6dae8/cmvpuAYMz10AYPjBg8CUymN4/n+Fy7RE2LmXO2zc1VgQhqo7xHbahW/hd76ODsemMnk54/9DLEFJXu/96m2MPbUg1j8lNPt758aX+mjr+eYU21BCTv26+IIiMMLl240Flb29WH9D1eBjls/+1gw2xwDwdBi3ngiQEEpnlqTdSEBEiABEiABEiABEohpl3ehCkp3/bO3BgOv4NH6tls2f4IS/kE9XC2UbFc9zkW+HLtAFix2CQM3XNlNmjWsbg4FKyghSPSjaqGESRBMYj08xNOSyLmf96fttgXlbN+6nlTXlaXFTrr2wnXH/7LMnBZOQenld6fIlm2uyXR/gejX6Urctz6aYe7dpGE1+eeVZ5htW1DynsRx6udMMnpbKDnHsdoXrlqWr9oqK3RFPlxPOen6f3ST5uq2KL/p3huuy/MlICbdet+DUiYpyX1ORnq6vP7s06JmVjLkoUekQsXsySyISm+98LxsTk11589t44V3P8gti8/jsSwo2XGzKlcqayzwMEa8xRdfghL6yGPPjzVMYKHUUeOwBEqwbuugK89hGbVWJ5fX6ITi7vQsufLiU3yeZvfjhilV5JarXZZ2hS0oobDsu64mK4jJa9tKp4264LxGXSAGSrAIePuzX6WGWnV20j7ZQGODFdET8vNMtRcVwN0W+jr6vONxC1ZLa066u/InKLVuXksG6sSxnSDg/2vED26L1/wISsE86+3Jb1iD+BuDthsv20LYFpQeU1eXyVZsJLt+9jaeNbgvWDlWTzher04lE5fRzhvKNseki1pBjEncacWa7W7BJy/tBbeocFPniDGwGn9S3Vli4QrcLnbRxUITpy43FqlD7znXuLh8ctRPxhIQoufCpZskY0+Wccc7VBc9OdfBvcfoeHcWQtSsXl4tf2oZt4rO+Jw5d42ee8AU0xaObEEJrlXb6fPFV8LzZLWPhRZ2XsSY/N8kV2xKb0HJyYd4Tuj/y/T/VWu3q1XjcXMIbgIRY6y0imj5SRwD+aHHc2OVAAWlWG05lpsESIAESIAESIAESMAngUSxUPpEAyEvORl0+xpdNdpGV6nayfZd709QQn7bnY5zPia2R46eLGkaowVp6D3nS1KZEmY7WEEJJznuVLD9qLr3KqcTg3ZKS89UVykH3W71cMy2kPLlEsUWdXITlO4f3Feq6qS9nb4bv0hmz19ndtkrwD/77zxZ9Ocms9/f5IQdcN1ma0/EBzPJ6JQLIllxneBwEiZo4QrvDw2ijtTz9KZy3lmtncMhf8KKaPXy5bmeX79RI7n5nvuldJky7rx79+xR13bPSNr27WZf1Ro15PaHH5HkctmuAQ8eOCCvPz8iT5ZKzVu3lpv0HqGkWBaUUN/X1B3Pxs3pHlW3rQFxwJeghP1PvzLexLnAZOETOsmXl5gW6E/DXhzndhnmz2WW7dLRdssVDYIS+y5aP/IxlHCPLdv3yMvvTMGmSeee3Vp6dW3qfM3x+ZVa3sxXawYkxGFBfKDyyaUkP89UW1jx1V/HaPwUX4KSLdjWqlFe7rrxLI/ywpXqS29n1y2QoHTp+R3ltA4pHueH+qzfqRZfI9XyCwkWwverhTBENzthwn/YSz/JAXVbiXHtxLlBHltQwkQ44t/4S97vE+SD5eDoT2bKERWlce0n7zs/z3EL/d2HY9JFpqAEJdsNnL828d5vizk4Zo9JCLSImdRYF8fcdHJxzMffzpWly7eY/uUsammpvzGvsyxdYT0It44QZyD2PqSLhWyxCfd58On/4sMkuwyegtJpKijVdrJ5fI6b8qfGAltl9l2iFrFdOzbwOI4vTlmx7f2bzdcYgBXu+1/OcrvC8xVHFNcKJnEMBEOLeeOFAAWleGlJ1oMESIAESIAESIAESMAQSBRB6ZdZK2XCFJco0F5jIlx5Uba1gfdkmS16AJI9KQWrobvVwskO1m274/K2KrIFpeEPDPCIw/CCilA7dDU00rD7L3BPVNkr3VvpCtZrrdXiJzQvYj1g5XT1quXUpUpXqaYTbeOnLZMpM11Bxc85q5X0Pr2ZuS7+YHU5BDUnRowvQenNj2fI+pOufq7T+BYtNc6FnfwJSvbqX8QwGjKolwZxzvazv0NFNrjyOqTxnJBsv/6hTjJiYgaTsVkHDsl16t7IdrNnr2gPl6A0feIE+f7Lz20cObYhJsHNXanS2XXfv2+vvDriabeY5JxUvVYtue3Bh3OISqNH/Vs2rF3rZPP5+berrpYzzurj81huO2NdUJq7MFW++dHl/gp1xST8o3ee67Fa2p+gZLvE6tuzpfTp3twDF6yYps1eJd1PbWwCrTsH7YlExJK49ZoeHpPS6IsYW8vUogHpbzqJ1+XkJF40CErsu66WLKjJ68+/n2/cReGuECD+74KOGn+nvocIAsu3GWqJMG7yn67C6V/bnVt+nqlvfDRdUjfuNtf1XvwAd1bD1dLCSbaFEt4Rjz2Pye5jAisExJGpoe8XJ9kLLrDPW1CaMH25/DJjpcneo2sTOf/sNs6p5jPUZz1OtoXks3Tc9tfxa6dvxmk8vQXrza4W6upukL4TnGS/uwMJSlhw8ZnGQbxc3a42PWld7FzDsRhDjDRYnOTXOoNj0kW2IMYkYoiNeHWC233bVRqDq1L57AUfThvjc+GyTTJTY+IhebsbXqRxKdE/7DSgX1vzvsC+Beoi7ksd+3byFlbxjnnihR9NnLUkFTYfHtLf4/eg7fYU1wlFUFqsotanKm4hYfHEbdf1lOpVks13/PlDraec2IP4bgtKjnCERRF9u7fAYXca+/MSN5twCEocA2603EggAhSUEqixWVUSIAESIAESIAESSAQCiSIowS3ae5/Pcjdpx7b1pJm6Q9u2Y6/+I3ujWXHqHAwkKCEPVqi2UMGlbNmSxr2IbTVh/wMdeZ3JKGy3bVVHaqp7I2cy25+glKWuVZ5/faIc0E+kBvWrSFv9Rz4mIhfrxMamLRlmf1WdKLj35rOlqE5c2i7vsAq7b48W0iilmuxUQWfOH+vEDvbsS1CyJwxwv3N6tTLujRrVr2ru5U9QgsD1tbXSvoJO1rTRstapWVE2bNltRKx9+w+Za3gLPKFOMsIKaa7GvEKCGyK4J0M5t+/cJxAOd+gn0k3XdJfGJ8tvdoT4Z1faTnnmwcBWQU+8+IqUK59tdZSVuV8tk56VbZtd1lvet65Vt64MfuAhjbOUPdmTl9gCj7/wkofLPO/rBvoe64LSocNHZbjG1IK1ABLG8BUaT8lO/gQlxK7495sT3a57MPHcskkNFaWK6zNgjwmSnp6RJU31mXD9FaebMYXrwnIDgcoPHTpqblOqVAk5pX19I+YingxcLTrxk4prvIr7b+2jgqprwjIaBCX2XVfvKIjJa9wJz2yIGI7bKuyDZU2DelXV0rSkoB+u25DmjueC43iGwQ1oqZIuN1L5eabaLu/q1KporDTxzsFk9S+/rnTHeMJ9bUEJ323hBm4lT1UrI1jHLlmxNUdMJm9BCa6xPvxqNi6jbsHKyIC+bc04wHUQ5zDUZz2uB8uvMWol5LwPMXabqnUILJMgvjkuxPBevvmaMz2sa/MiKO3WcT/yrZ/NRD9E6s46vrGgAsLRnyu3yvTZrthttjtLlCvUxDHpIlcQY9JeSNQopaqJg+Wv3fC76yl9v2CRANK9t/RxizEHdUHMk6PGaZ9zHcPxh1QQqlTB9azPUuu44Wolhz6JBDEZbvNgiWQn2+Udfg920TGWpOMDcZp+nr7SbQ2Lc0IRlGBh9JYuDnJ+k0JUwjsNzwA8d9am7vKog/N7FYLyqDGTZWeay8oeLjtbN6vpOm9jmozXxViH9f2LdxzGfgl1q5yfxDGQH3o8N1YJUFCK1ZZjuUmABEiABEiABEiABHwSSBRBCW7pPtEVpnBL4it10lXkTgykQIISVm86lj7e1/G1MtsWP5AfEw3P/usic6o/QQkHMVH2ubqTg99+X6mMThTcoDGC6tWuZA5jQuAjDca+/KSlhPc5mFRIVasmTAr4EpS8BTecj5Xqzzx0obmUP0EJB8H2M12du/ik6ztzgtcfXy7tQp1kxEra0Z/M8Jgc9bqdoJ2u1oDZvuJdeefNy/c31CXdmpWuFfi+8jdt1cpYKOHYgaws48Ju60aX6z1f+bHPO95Sbm5g8uPuDveLdUEJdViq/XvP3ixs6qRyDfeEn9mhf/wJSjiOVeTf/LjQWGE4+b0/Mbl/3eWne8RawdjAZLkz0eh9Dr6XUReXsJZrULeK+3A0CEooDPtuwbi8cxoeVhEffj3bLfw7+319QqQYpP3NEZOcPKE+UyFYvf3ZTLf7Ved6zmcbdZXlvAO9BaUNm3fLmE9/dQu2zjn4rF+3srqUO2wWKOC7t6AEN19w1Yr3i50GX9dDUupUzpeghOtBEEPZvK/v3AuLKCAm2VZVOJYXQQn5pqp1om0xhn12gpB8rbova6yiRDgSx2TkxySknee0T2KhANJlan12iv7OC5RsS7zuXRrLgD5t3dltd5GIf3T3Pz3dQr6lv0nWqWCD5C/e1ur1O/XZMMdnP4ZY07hBVRVvt5trhCIo4UT8Pnr1vamCBQ/eqaSK1ik6llfpOw3JEZSwvSY1TT7Q95y/MYY85/VpLT27+HfjiTx5TRwDeSXFfPFCgIJSvLQk60ECJEACJEACJEACJGAIJIqghMpi9SYEnr9UrNmvQYeREC+iqwZZLlu2tHzynzlmXyBBCTEUpqu7oplzVltWC8Xl9FMaGVc8sBayE4Ib/3fCIhV6tpkJafyDfri6t0MKJCjhOFZO41wIQY6wBEGqdYta0q9HyxyTZ5iEHD9tuYkhtGevK7Az7geLCkyMjHrbtQLVl6CE+81bvEG+n7DYPaFQSldoD7vPVdZAghLOxcrcn2euMJZDjkUS9mO1erdTG0lPjSXiSUbFAV39/fFJ5r4EJ5w/TFcMZypDW4jD/iMah2D6nFUmrhPiGTgJK+I7taunVmAtctzPyRPK5+YNqTLqyaEBT23VvoP844Yb5a0X/i2bU12xUQKeoAcdUenTt9+S5YsXB8x+//CnpWbtOgHzBDoYD4JSoPrhWCBBCcfh3nLspCWyaWuGe/xiP9zZ4TnQrXMjnyJkugZZn6BjCwHXMc6cBCGpvk6Yw8WX92R2tAhK7LuRn7x2+oPziecTLEN/07hzTmw95xg+8d7pfUZzaafCN55tvlIoz1RcB5YWeM+tWbfDbdUDd6T91FVcK7XugZUfkreghH1YyDBJ3ddt2bbHPNOxcKFRg2pycf928q5a+MKiF8lbUMK+zdsyzGS58+5BvYYM6iF1a1XK17Me10aCqIQx6EyGYx/u0VLr1L9XS2NNgX12yqughHPwTPjpl6XmfYs4N0h4f9ZVS69Lzu2QQ7w2GUL8wzEZ+TG5SsWbd1SERILlGWJreQu33s1n/yaBW7pH7zjHLKxBvpm/r5GxE5eYU3p3bybn9GzlcfqMuavlf5OWmn3eboftjHgHfTtukY6xDLfFbPVq5eTyCzrJbn3PfKYuVJFCFZRwLqz6fpi02C1wYR+eORCQ4NrPcY9sC0rIAzF8/NRlslStEh03xXD1WKNasvTR35zesUdxTqiJYyBUcjwvVglQUIrVlmO5SYAESIAESIAESIAEfBKINUHJZyVC2JmWnmniICXrpEEoCVPKcCeHVKViknvSwezw8QeTfOkZmeoqq3zQ7kJwr11aXsS3qFyxrIfffR+3MrsgZGXpinL4z/c3YenrXEyWI+4RrDGqVSkXfFn1fKyQxerYcsllpEK5UkHd31eZctsHV0i7lW0VFZPs2Fa5nRfs8c/eGSPzf8t2m+jr/DJJZdRCySXm+Trua19ezunas6dcNnCQr9PzvC8WBKU8VyafGTGmsHIdrozK62S7t2sif5fHuNil57n6W7KJX+YvbzTtZ9/1bZka6TZy+hn6C6x4Kmh8ucoVk7XPebrCClQOPJNDfabiPYcYc45rrkD3sY8h3gvKDJE0mPcHrpGhixn2Zx6UypWSJUkFqXCng+p+Mn1PpilXJY1pmJtIEOz9Ye27K91l1VK1UlLQ9c/r/TgmC2dM5rV9Ip0PLowRQ7NCuSR1exf+cYLy45mToRa9lfR3Y7BjEc+czKxDxr1rcbVWj0RK9DEQCaa8ZvQSoKAUYtscO3ZM/1Hq8nUNhbt4cZd/4BAvx9PCSODw4cPuq5UoUSJiP5jcNwli4+BB12rT0lZw4yBOZ1YSIAESIAESIIE8EEhUQSkPaJiFBDwI7MnIkBeGPiqZ+11CosfBCH6pWKWy3Dt0mEe8pVBuR0EpFGrxcQ77bmJPXsdHL46vWnBMckzGV48OvjaJPgaCJ8YzYplAzAlKR48elc2bN0uqulxYv369pKenS10NANuwYUNJSUmRKlWyfTxHsmG++eYbmThxornFqaeeKjfeeGMkbxe1116xYoXs3LnTb/kgnJTXYL7Vq1eXSpVc/vD9Zg7DgUOHDskdd9zhvtKwYcOkRo0a7u+FuYH+MnbsWONS4oILLpBzzjmnMIvDe5MACZAACZBA3BKgoBS3TcuKRYDAhrVr5bXnnpZjai1WEKlEyZJy12ND8+XqziknBSWHRGJ+su8mZruz1tFLgGMyetuGJSsYAok8BgqGMO8SLQRiSlCCkPTqq68aEckfwE6dOsn111+vPkUjY2Lp3JeCkovE22+/LfPmzXOw+P2EWTlEvz59+kjnzp395svvgWgVlGDNdt9990mWBjRGgtA2cuTIiPfT/PLk+SRAAiRAAiQQiwQoKMViq7HMhUng919nyhfvvVMgRRg05A5p07FTWO5FQSksGGP6Iuy7Md18LHwcEuCYjMNGZZWCIpCoYyAoSMwc8wRiRlBatmyZjB49WoP3ZgeoBX24mzuuvjrt1KhRIxk8eLCUK1fO3h3W7VgWlDZu3GhYlNTVgfm13smroGTD79atmwwcODAirugKWlDasWOHBvdzBcCGpVwgf8xPPfWUOOxr164tQ4cOtbFwmwRIgARIgARIIEwEKCiFCSQvk1AE5s6cIV9/9L4c15g6kUhY8HfFDf+UDqeeFrbLU1AKG8qYvhD7bkw3HwsfhwQ4JuOwUVmloAgk4hgIChAzxzyBmBCUMGmPyXdHOKpatapceeWV0qBBAylVqpSsW7dO5s6dK9OnT3c3SL169eTRRx91fw/3RqwKSrCQufvuuw2OcDCyBSVYh51xxhlu1CbY5p49gvb77bffZO/eve5jAwYMELh9C3cqaEFp+PDhsmnTJlONl19+2Vge+asT8k2aNMm4vOvbt6+APxMJkAAJkAAJkED4CVBQCj9TXjExCKxZuULef/0VOZDpsqoPV62T1QX2TXffK3Xqp4TrkuY6FJTCijOmL8a+G9PNx8LHIQGOyThsVFYpKAKJNgaCgsPMMU8gJgSlr776SiZPnmxgw+roiSeekOTk5Bzwv/32W5kwYYJ7/5133imtWrVyfw/nRqwKSlu3bjX8wCLcglK/fv3k0ksv9YkZlmVjxoyRP//80xzHCsXnn39ekpKSfOYPdWdBC0pwY7dv3z5T3NwEpVDrxPNIgARIgARIgASCI0BBKThezE0CNoFdaTtl7JdfyJIF8+3dIW93Pr2bXHDZ36V8hQohX8PfiRSU/JFJzP3su4nZ7qx19BLgmIzetmHJCoZAIo2BgiHKu0QLgZgQlBBrZtWqVYZZly5dTIwkXwAPHz5srG+OHj1qDsMCBpYwkUixKiitXLlSRo0aZZAUpKCEG6anpxurMad9rr2W1VZPAAACGElEQVT2WoH7u3CmghSUYDEH14qwxEKioBTOluS1SIAESIAESCB0AhSUQmfHM0nAIYCVtd99/qlsPeku29mf18+URo3l0msGht0qyb4/BSWbBrcdAuy7Dgl+kkB0EOCYjI52YCkKj0AijIHCo8s7FwaBmBCU4O5u27Zthk+fPn3ksssu88tq6tSpskfdrCGlpKRIhw4d/ObFgQMHDhixavfu3Wa7UqVKUrNmTeNOL9CJwQpKEB9Wr14tO3fuNOWDpRVc9zVr1kyKFSsW6FY5jsEiZu3atZKWlibHjh2TatWqmVhIiMvjK0HAcZgsXrxYvvjiC5MN+YcMGeJxCiy/4EYwr8l2eRfIQsm5nu0i7txzz5WLL77YOZTjE/GGtmzZYoQolKly5crSpEkTKVu2bI68zo5QBCUIXampqcY1n9P25dUth7+EvgIRCe0wYsQId7bHH3/cw+Vd6dKlPcqamZnpjgHmfcx9EWsD90A7b9++3bQf2qZKlSqmzxQvXtzKmXMzIyPD9A0cATcnthP6DMRZ9AfUtXHjxhGNNZazZNxDAiRAAiRAApEnEC5Baf7GrXLsuGvhSORLzTuQQHQS2JS6XpbrvyFWLFksG9atUTfkvsdEseLFpGGTptKibTtp2a691KxdJ6IVKla0iHSuVytf9+AYzxe+qD+ZfTfqm4gFTDACHJMJ1uCsbg4C8TwGclSWO+KawP8DAAD//5Jj0eoAACEASURBVO3dCZQU1b3H8T/Kouz7Kgj4QAQ0qFHccCXwjk9igoQYUeOWkGeCEiWaoBw3jGLQ4DFiwMSogUQIMTGKPgkCQYMSF1wQERE17CigIiC48OZ39VZqarqnu2e6Z6q6v/ccprurblVXfW7VOTA//rfq7ClrlmU76fuTXc/5Uy/Ocov8dLvjjjts6dKlbmedOnWycePGWZ06daq18+3bt9tf//pXW7x4se3atavCvvQ93/zmN+3ggw+usE4L/vznP9ucOXPcuiOOOMIuuuiilP0+//xz12/+/Pn2/vvvV+jTtGlT+9rXvmaDBg2qsC66YPPmze6YX3jhBfv000+jq61r1652+umnW+/evcutW716tY0fP77csnQfvve979lXv/rVdKsrLL/77rvtueeec8t1DmeccUaFPuEFkyZNstdee80tOumkk+zMM88Mr3bvlyxZYrNnzzYdd7TVq1fP+vfvb8OHD7cGDRpEV7uxvOSSS4Ll119/vbVr1y74HH7z/PPP2wMPPGAffvhheLF737JlSxswYICdeuqpFdaNHj3adu7cWWF5dMHxxx9vI0aMCBZPnz7dFi5c6D4fd9xxds455wTrom8WLFhgc+fOtXfffTe6yho1auSO7bTTTjN5pGo///nP7Z133nGrJkyYYI0bN7Z7773XjVX0lm/fvr1997vfte7du6faFcsQQAABBBBInEC+/s66dP27tmP3J4k7fw4YgUIKbCv7u/POHTvK/mx3X7Nvw0bWqLH+NCnk11bYd8P69axvhzYVlueygHs8F63k9+XaTf4YcgbFJcA9WVzjydnkLlBM90DuZ88WSRaok4RA6dFHH7WHHnoocD7ssMPsvPPOSxkoBJ0qebNmzRqbPHmyKaCprO2999528cUXW9++fSt0yyZQ2lH2D60pU6bY8uXLK2wfXaDgQmFQuqYQRuGNgrBMbciQIaawwbc4BUo/+9nPbMuWLe7Qhg4daoMHD/aHaQo65Pr3v/89WJbuTa9evWzUqFFWt27dcl0UDmYKlD755BObMWOGPfnkk+W2TfVBYd+wYcPKrSpkoKTj/93vfmcK1TK1Ll26uOuzRYsWFbqGAyUFsI888kil+1RI9ZOf/MQ6dOhQYV8sQAABBBBAIGkC+QqU3tr8vr370Y6knT7Hi0BJCLRp3NC6tWperXPlHq8WHxtXUYBrt4pwbIZAgQS4JwsEy24TI5CPeyAxJ8uB5kUgEYHS7t277dprry0XADVs2NCOOeYYO/bYY61jx45ZYyjkUdXK1q1b3Tb6RfqRRx5pPXv2tNatW9uGDRtcFckbb7zh1qsC5NJLL7UePXqU+45sAqU777zTXn75ZbfdXnvtZapkOvDAA01BgEKVl156yRYtWuSCFHVSdU+qSqX169ebAgI5qKkyRyGXKpH0/tVXX3V/wpU25557rrNRf1VG+WqqdevWBRVCTZo0ceeuPr4dffTR1rlzZ/8x42suFUqqMlO1mW9jx461/fff3390QdKsWbOCz7I65JBD7IADDrCPP/7YVq5c6fr4irKvfOUr9oMf/MBk61s2gdLDDz/sAhZto0q3Pn36OM9u3bqZfF588UU3Nn6f0YDuL3/5iymUUpWSxs+3E044oVzApeM+/PDD/WrLpkLpnnvucVVzfiNVymmsta+1a9fasmXLzF+b6iO/K664otz3ank4UFIfVSu1atXK+vXrZwrjVOGmoFMVU75iqXnz5u4+23fffbULGgIIIIBACQroP3Vk8x87sqHRf8rQn9po+QqU3tu+01a998XfGWvjPPhOBBBIL9C9dQtr3ah6f2/lHk/vy5rCCXDtFs6WPSNQFQHuyaqosU0xCeTjHigmD84ls0AiAiWdxqZNm1y1j6qLok1VFZqmTVOMaQq5ytr9999v//znP10XBSqXXXZZykBK0+E99thjrt8+++zjfkGv8Mm3TIHSM8884ypN1F+Bx/nnn18hvNE6hUEKWfwv9VX9ctBBB2mVa1p+4403BtO/1a9f3y6//HI3vZ3vo1dNradwR9PhqWmKs1tuucVUZRVuOncZqCk4uvrqq8Orc36fbaCk8EKVN37aP02vduWVVwbfp/G97rrrgqn8TjzxRDcdXnRqQwVxN910UzBNXbSyK1OgJE9VSflAUaGkpnsLN/WZOnVqYKnrS4FmtGk6urCfpvOrLIzJFChp7FTR5pvCKE1BGDWIVuypGk2hV7iFAyUtb9u2rQuedM2HW/Q7o9dfuC/vEUAAAQRKQyAfoVJthkkapXwFSp+W/f3qhdUbSmPgOUsEEiZwWOf2Vjf0H8uqcvjc41VRY5vqCnDtVleQ7RHIrwD3ZH492VvyBPJxDyTvrDni6ggkJlDSSaoqZN68eabny/hp08Inr+nPjjrqKDeNmn6BHm2qchkzZozbj9YpDEhXjaOA5uabbw6eQ6Nn/eiZP75lCpT03JpVq1a57t/61rds4MCBftMKrzNnzrQnnnjCLdd0fiNHjgz6qBpl4sSJwecf/ehHaZ/rpOorhTS+kknVO4ceemiwrd4UMlBShY+qinxTMKMAaePGjfb222/7xabqsquuuspVhPmF4QBPlUeaajBdU2WXpixUU4Aoa1+llClQWrFihQuLtK2Cwp/+9KcufNPncNN0iKqgUlOgc9ttt7njDvfJd6B06623mo5PTRVzqoyLTunnvz8cTikkkkE4PAwHStqHwjpV4KVqur581VN0GsJU/VmGAAIIIFD8AtUJlWo7TNLo5CtQ0r6YEksKNATiJZDPqVm4x+M1tsV+NFy7xT7CnF/SBLgnkzZiHG++BfJ5D+T72NhffAUSFSh5RoU9r7zyij377LNuSjk/BZpfr6BAz9HRNGHhtnjxYtOUYmotW7Z0lS7h9dH3s2fPtr/97W9usaYd0zN7fKssUFL1i4IK31RhlO6X+eoTDo1UgRSeFm7atGnBs37atGlj48eP97tN+aqgTcGbmoKbaEVKIQOllAcUWdi1a1e78MILXcVMeJXCPQU0aqoYUuVQuvbZZ5+58dW0bWqqONJ+1TIFSq5TFj8UhqlaRyGkmsY++iytfAZKCt50zeh71S644ALr37+/e5/qh6a/09SNvkWPLxwoyUZG6Vp4CkBV+qkqioYAAggggEBVQqU4hEkauXwGSjt2f2JL13/xdxSuCgQQiIdA3w5trGH9enk5GO7xvDCykywFuHazhKIbAjUkwD1ZQ9B8TWwF8nkPxPYkObC8CyQyUAorKDxRsKSqJT0nxjc9W0i/ZA8/+0jhkEIi38IVR35Z+FXTsGlKOjU9p+maa64JVlcWKGl6t1/+8pdB30zfo3N46qmngv6qhvHT64WrR/QMposuuijoV5U3hQyUZK4/voWf6aRlCio0jVt0CjcFhKpI8mGKpvxr3769303KV4WDqshSU0WXKrvUcgmUFBbpmVl6RpX+RI9XlVD+O0aMGOGmVHRf8uWPfAZKr7/+uquC8vtXWNSuXTv/scKrzBR4+TB1+PDhdsoppwT9woGSnu101llnBeuib/QcqPvuu88tjl7n0b58RgABBBAoLYFcQqW4hEkaoXwGStrf6q3bbP2H2/SWhgACtSzQoWkT69yi/DTO1T0k7vHqCrJ9NgJcu9ko0QeBmhPgnqw5a74pngKFuAfieaYcVb4FEh8ohUE0bdyf/vSnIJjo06ePq2TxfcLPT/LLsn1t1qyZeyaR719ZoBR+fpLvn8trOEwIV+5kmjovm+8oZKA0aNAgO+OMM4LDUBijyhhf5aNp/3QO0Rat6Iquz/T57LPPtgEDBrhu2QZKCiB1rfgqp0zfUehAKXzN6DlMCiSjwVv0GH/xi1/YypUr3WL9Em/YsGFBl3Cg9J3vfMf0TKp07bnnnnPP39J6hVjhyqd027AcAQQQQKB0BLIJleIUJmlk8h0oaZ+qUlIlAw0BBGpPQFVJ+p+0hWjc44VQZZ9egGvXS/CKQDwEuCfjMQ4cRe0JFPIeqL2z4ptrSqCoAiWhPfTQQ/boo486P019p1/M++fr/P73vy9XCdSvX7+snTV1nIIL3yoLlMJT66l/Lt+j/voeP1XduHHjTJVSakkLlHTM4Wcj1atXzxR06LlH4abp3vTsJ99UoRSudPLL072qAqxXr15udaZASdVgv/3tb23JkiXB7nQ8ClI0DWI4xFEfXwFU6EApfM1o2sPbb789uG6DA428uemmm+ztL59NNXjwYNPzj3wLB0qpjt330yuBUliD9wgggAACqQQqC5XiFibp+AsRKClMem3je/bZ519MT5vKiWUIIFA4gb33qmMHtWudt6nuokfKPR4V4XO+BLh28yXJfhDIjwD3ZH4c2UtyBQp9DyRXhiPPViD2gZKm4/rXv/7lzkfTwGV6vsuqVatswoQJwflfddVV1qVLF/c5/KyYAw880C677LKgX65vKguUVqxYYbfeeqvbZd26dV04oNeqNO1H+1M7/vjjTeFAdVpNVijpOLdt22Zjx4613bt3u8NOVaWk6dt++MMfml7VxowZU26qQrcwyx+ZAqV58+bZjBkz3N723ntv01Rxqap3os9pShXK5HPKu/A1o4NTkLjffvulPWtVVl166aVBhdWZZ55p4akVCZTS0rECAQQQQKCKAqlCpTiGSTq9QgRK2u+2XbttxabNhErCoCFQgwL6xUfPtq2sSYP6Bf1W7vGC8pbkzrl2S3LYOekYC3BPxnhwOLQaEaipe6BGToYvqTWB2AdKTz75pE2bNi0A0i/KW7VqFXyOvtmyZYubZs0v//GPfxxUr4QrMVS9NGnSpHIVKX6bbF4rC5T0LJ4rrrgimHpP07517do1m91W6PPAAw/Y/Pnz3XIFDJoCL1xFE93gzTffDKaYa9OmjbVt27Zcl3CgpP0puKhOu/vuu12Fi/YRnfLO71dTy82dO9d9VJXSjTfeaJpCMNyuvfZa9xwjLdO0edpXVVqmQElj/tprr7ldH3LIIS7ISvU9qvxRBZBvqQKl9957zxRY+qZquIYNG/qPFV6nT59uCxcudMuPO+44O+ecc4I+Ct50zfhQ7dxzz7Vjjz02WB9989Zbb9nNN98cLL788sutZ8+ewWcCpYCCNwgggAACeRQIh0pxDZN0uoUKlLRvVTGs2vw+098Jg4ZADQhoSpburZoXrDIpegrc41ERPldVgGu3qnJsh0BhBLgnC+PKXpMjUNP3QHJkONJcBWIfKK1evdrGjx8fnNfpp59up556avA5+uapp54yTW3nm6qVmjdv7j5qujNVv/hn+lT2S3uFQlOnTjVto6Zp6Dp37uze60dlgZLWh4OLo446ys4//3wtrtAUINx77722ceNGt05VSOEg4Z133nHTxPkNL7zwQjvyyCP9x3Kv2sc111wTBFmjR482TR8XbsuXL3fTAGpZixYtyoUS4X7Zvs8mUPrggw9clZJ/XtEpp5ziKoPC36FpCjVdoVrHjh1duKJnCaVqc+bMseeff96tUlCnZwT5lilQ0rWka0rthBNOsLPOOstvWu71zjvvtJdffjlYlipQ0rVxySWXBCGQgrLWrVsH20TfVBYoqe8dd9xhS5cudZtVZqBrZvLkyfbKK6+4vvpOnVc4aCRQcjT8QAABBBAogIBCJTUFSnFthQyU/Dmv3rrN1n+4zX/kFQEECiBQmw+L5h4vwICW0C65dktosDnVRAhwTyZimDjIAgrU5j1QwNNi17UkEPtASS4TJ060N954wxHpl+aa3ivVNGWa7u6uu+4yhUFqvXv3dtOCuQ9f/pg1a5b5X4To2UojR46s8IwjBR+33XabqdpHrUePHi6I+nIX7iVToKQwQqGEb/qly7Bhw/zH4DV8PKpuUTCgqf3CLTztnZ6tpFApGhTpnKdMmWIrV650m6YKGbRix44dpqotNVkqdPLPH3ILc/yRTaCkXf7hD3+wf/zjH27vqlLSefqgTwv1HCWFYT7sk7mmdFPfcHvppZfcGO/Z88XzC8IVaOqXKVD64x//aAsWLHC7lJEqtFStFm6PP/64Pfjgg+FFbqpBhX3RdsMNN9iaNWvc4tNOO82GDBkS7RJ8zhQoqXJKQaRvqjiSQXi6RJ23AshnnnnGd3OBWvR+IFAKeHiDAAIIIFCCAjURKIlVlQwbt223dz/aUYLKnDIChRNo07ihtWvSqMaqktKdCfd4OhmWpxPg2k0nw3IEakeAe7J23PnW+AjE5R6IjwhHkg+BRARK69ats1tuucV27twZnPP+++9v3bt3N1WobN261VWdKGzwVTD169e3K6+8ssJzaFRVol+2a59qeo6OwgsFNAo4Xn/9dTclmvapptBFU5Hpu8ItU6Ckvvfff79pijnfVOGkkEuvmlJNAcLatWv9ahs6dKgNHjw4+Ozf6Fiuv/56FwZpmY6pX79+7phUxaN9aDo/TZumpgBi1KhRaYMiTdOm6drUtK8OHTpY06ZN3XtV+7Rr186ty+ZHtoHS5s2bXXijZxOp6Xk/CgbDbfHixXbPPfcEi1q2bGl9+vRx46PjlZdCQ7+Pvn37uvMMNih7kylQWrJkif36178ONmnfvr2rVNLrpk2bXFXSq6++agobO3XqFFQzpapQ0k6iY6zpGPVH19WAAQPs8MMPD74rU6CkjjNnzrQnnngi2KZx48ZuHHX9KbhatmyZC998h3TT9hEoeSFeEUAAAQRKUaCmAiVv+2lZ9fD7O3fZto932faykGlX2X9O+uzzL/7zi+/DKwIIpBbQXP4Nyv790qhsarsm+zSw5vs2sLplfxePU+Mej9NoxOdYuHbjMxYcCQIS4J7kOih1gSTcA6U+RsVy/okIlIStCqXf/OY35X6Znm4QVOlzwQUX2MEHH5yyiwIaVTJpOrnKmkIWVQOlquDJJlBSeKUQ4emnn67sa1z4oDBp4MCBaftpmjYds4KZypqCDE2vd8QRR6TtpsqrX/3qV0FAFe44duxYU1iXbcs2UNL+7rvvPlu0aJHbdaoqJa3Q86L0zCUfGrnOKX5oGkFNV9egQYNyazMFSqrwUWgzb968cttFP3zjG99w4dRjjz3mVqULlFQZdvvttwdVSuH9RJ8FlU2gpPPW+fvnZoX3F31/6KGH2nnnnVehwkr9CJSiWnxGAAEEECglgZoOlErJlnNFAAEEEEAAAQQQQAABBBAoXYHEBEoaIlUo6Rf8zz77rG3ZsqXCqGnqMlWEaNoxPR+osqZKJk19t3Dhwgr70rRymm7s29/+tjVr1izlbrIJlPyGOt65c+e6qiS/TK+qolJ4o+ChW7du4VUp32/fvt30/CBVPflqJN9RlUZ6ttLXv/71Sp/j4/urqknnr6qX9evXB5VdhQyUVAGkae30DCA1TdMWfv6RPzZVb2mcNW2g76t1qhrSs4X0DKZjjjnGdy/3milQ8p01rZ3G3ldq+eWaBk/XjwIrhU4zZsxwq9IFSlqpaQQfeeQR+/e//+2qxfRZrSqBktuw7Ieq7TQ+fqpHv1yvqnA7+eST0xqoD4GSFGgIIIAAAqUqQKBUqiPPeSOAAAIIIIAAAggggAACCBRSIFGBUhhCIYgqjRSsaNo3BT8KG6LP3Alvk+q9Kla0L1X+KGTq0qWLm7IsVd/qLlN4oT8fffSRO1ZNs6aQJNem49ywYYM7ZlW0tG3b1tq0aVOhWifX/catv8Z248aNbpw1jZyClFzHN9M5KaRTgLV7924XxO23335u6r9M29XUel3jCuI++OADU9CpwEtjTUMAAQQQQACB9AIESultWIMAAggggAACCCCAAAIIIIBAVQUSGyhV9YTZDgEEEEAAAQQQQKC4BQiUint8OTsEEEAAAQQQQAABBBBAAIHaESBQqh13vhUBBBBAAAEEEECgQAIESgWCZbcIIIAAAggggAACCCCAAAIlLUCgVNLDz8kjgAACCCCAAALFJ0CgVHxjyhkhgAACCCCAAAIIIIAAAgjUvgCBUu2PAUeAAAIIIIAAAgggkEcBAqU8YrIrBBBAAAEEEEAAAQQQQAABBL4UIFDiUkAAAQQQQAABBBAoKgECpaIaTk4GAQQQQAABBBBAAAEEEEAgJgIESjEZCA4DAQQQQAABBBBAID8CBEr5cWQvCCCAAAIIIIAAAggggAACCIQFCJTCGrxHAAEEEEAAAQQQSLwAgVLih5ATQAABBBBAAAEEEEAAAQQQiKEAgVIMB4VDQgABBBBAAAEEEKi6AIFS1e3YEgEEEEAAAQQQQAABBBBAAIF0AgRK6WRYjgACCCCAAAIIIJBIAQKlRA4bB40AAggggAACCCCAAAIIIBBzAQKlmA8Qh4cAAggggAACCCCQmwCBUm5e9EYAAQQQQAABBBBAAAEEEEAgGwECpWyU6IMAAggggAACCCCQGAECpcQMFQeKAAIIIIAAAggggAACCCCQIAECpQQNFoeKAAIIIIAAAgggkFmAQCmzET0QQAABBBBAAAEEEEAAAQQQyFWAQClXMfojgAACCCCAAAIIxFqAQCnWw8PBIYAAAggggAACCCCAAAIIJFSAQCmhA8dhI4AAAggggAACCKQWIFBK7cJSBBBAAAEEEEAAAQQQQAABBKojQKBUHT22RQABBBBAAAEEEIidAIFS7IaEA0IAAQQQQAABBBBAAAEEECgCAQKlIhhETgEBBBBAAAEEEEDgPwIESv+x4B0CCCCAAAIIIIAAAggggAAC+RIgUMqXJPtBAAEEEEAAAQQQiIUAgVIshoGDQAABBBBAAAEEEEAAAQQQKDIBAqUiG1BOBwEEEEAAAQQQKHUBAqVSvwI4fwQQQAABBBBAAAEEEEAAgUIIECgVQpV9IoAAAggggAACCNSaAIFSrdHzxQgggAACCCCAAAIIIIAAAkUsQKBUxIPLqSGAAAIIIIAAAqUoQKBUiqPOOSOAAAIIIIAAAggggAACCBRagECp0MLsHwEEEEAAAQQQQKBGBQiUapSbL0MAAQQQQAABBBBAAAEEECgRAQKlEhloThMBBBBAAAEEECgVAQKlUhlpzhMBBBBAAAEEEEAAAQQQQKAmBQiUalKb70IAAQQQQAABBBAouACBUsGJ+QIEEEAAAQQQQAABBBBAAIESFCBQKsFB55QRQAABBBBAAIFiFiBQKubR5dwQQAABBBBAAAEEEEAAAQRqS4BAqbbk+V4EEEAAAQQQQACBgggQKBWElZ0igAACCCCAAAIIIIAAAgiUuACBUolfAJw+AggggAACCCBQbAIESsU2opwPAggggAACCCCAAAIIIIBAHAQIlOIwChwDAggggAACCCCAQN4ECJTyRsmOEEAAAQQQQAABBBBAAAEEEAgECJQCCt4ggAACCCCAAAIIFIMAgVIxjCLngAACCCCAAAIIIIAAAgggEDcBAqW4jQjHgwACCCCAAAIIIFAtAQKlavGxMQIIIIAAAggggAACCCCAAAIpBQiUUrKwEAEEEEAAAQQQQCCpAgRKSR05jhsBBBBAAAEEEEAAAQQQQCDOAgRKcR4djg0BBBBAAAEEEEAgZwECpZzJ2AABBBBAAAEEEEAAAQQQQACBjAIEShmJ6IAAAggggAACCCCQJAECpSSNFseKAAIIIIAAAggggAACCCCQFAECpaSMFMeJAAIIIIAAAgggkJUAgVJWTHRCAAEEEEAAAQQQQAABBBBAICcBAqWcuOiMAAIIIIAAAgggEHcBAqW4jxDHhwACCCCAAAIIIIAAAgggkEQBAqUkjhrHjAACCCCAAAIIIJBWgEApLQ0rEEAAAQQQQAABBBBAAAEEEKiyAIFSlenYEAEEEEAAAQQQQCCOAgRKcRwVjgkBBBBAAAEEEEAAAQQQQCDpAgRKSR9Bjh8BBBBAAAEEEECgnACBUjkOPiCAAAIIIIAAAggggAACCCCQF4EqBUrzpvyv1alTJy8HwE4QQAABBBBAAAEEEMiXwJ49e+zkkXe53c2fenG+dst+EEAAAQQQQAABBBBAAAEEECh5gZwCpRFXT7d1mz6wqeOGW4/OrUseDwAEEEAAAQQQQACBeAm8sfo9+/4NM61j22Y2ffyIeB0cR4MAAggggAACCCCAAAIIIIBAggVyCpQmTltgsxcus+GD+tn/DjsmwafNoSOAAAIIIIAAAggUo8BdsxbZzDkv2v8c39vGnH1iMZ4i54QAAggggAACCCCAAAIIIIBArQjkFCgtfXODjZrwoDtQqpRqZbz4UgQQQAABBBBAAIE0Ar46SavvuHKo9T2gfZqeLEYAAQQQQAABBBBAAAEEEEAAgVwFcgqUtHNfpdSpbBqRa0YOZuq7XMXpjwACCCCAAAIIIJB3AYVJ10153NaWTc9MdVLeedkhAggggAACCCCAAAIIIIAAApZzoCSzMZMetueXrXZ8mv5uYP+e9l/7tbI6depAigACCCCAAAIIIIBAjQjs2bPHVq7ZbHMXr3DT3OlLD+/d2SaOHlIj38+XIIAAAggggAACCCCAAAIIIFBKAlUKlATkK5VKCYtzRQABBBBAAAEEEIivAJVJ8R0bjgwBBBBAAAEEEEAAAQQQQCD5AlUOlHTqeqbS/z293JYsX2vryqYXoSGAAAIIIIAAAgggUJMCHcumYT60Vyf776N78cykmoTnuxBAAAEEEEAAAQQQQAABBEpOoFqBUslpccIIIIAAAggggAACCCCAAAIIIIAAAggggAACCCCAQAkKECiV4KBzyggggAACCCCAAAIIIIAAAggggAACCCCAAAIIIIBALgIESrlo0RcBBBBAAAEEEEAAAQQQQAABBBBAAAEEEEAAAQQQKEEBAqUSHHROGQEEEEAAAQQQQAABBBBAAAEEEEAAAQQQQAABBBDIRYBAKRct+iKAAAIIIIAAAggggAACCCCAAAIIIIAAAggggAACJShAoFSCg84pI4AAAggggAACCCCAAAIIIIAAAggggAACCCCAAAK5CBAo5aJFXwQQQAABBBBAAAEEEEAAAQQQQAABBBBAAAEEEECgBAUIlEpw0DllBBBAAAEEEEAAAQQQQAABBBBAAAEEEEAAAQQQQCAXAQKlXLToiwACCCCAAAIIIIAAAggggAACCCCAAAIIIIAAAgiUoACBUgkOOqeMAAIIIIAAAggggAACCCCAAAIIIIAAAggggAACCOQiQKCUixZ9EUAAAQQQQAABBBBAAAEEEEAAAQQQQAABBBBAAIESFCBQKsFB55QRQAABBBBAAAEEEEAAAQQQQAABBBBAAAEEEEAAgVwECJRy0aIvAggggAACCCCAAAIIIIAAAggggAACCCCAAAIIIFCCAv8PuDlwPK+1r6EAAAAASUVORK5CYII=;" vertex="1" parent="lkaNOGTGJZpjp38PW3jR-31">
          <mxGeometry x="13" y="4.689999999999998" width="568.34" height="50.63" as="geometry" />
        </mxCell>
        <mxCell id="lkaNOGTGJZpjp38PW3jR-34" value="&lt;font style=&quot;font-size: 20px;&quot; face=&quot;Calibri&quot;&gt;&lt;b&gt;A&lt;/b&gt;&lt;/font&gt;" style="rounded=1;whiteSpace=wrap;html=1;fillColor=#e1d5e7;strokeColor=#9673a6;" vertex="1" parent="1">
          <mxGeometry x="452" y="200" width="31" height="30.82" as="geometry" />
        </mxCell>
        <mxCell id="lkaNOGTGJZpjp38PW3jR-35" value="&lt;font style=&quot;font-size: 20px;&quot; face=&quot;Calibri&quot;&gt;&lt;b&gt;B&lt;/b&gt;&lt;/font&gt;" style="rounded=1;whiteSpace=wrap;html=1;fillColor=#e1d5e7;strokeColor=#9673a6;" vertex="1" parent="1">
          <mxGeometry x="451" y="380" width="31" height="30.82" as="geometry" />
        </mxCell>
      </root>
    </mxGraphModel>
  </diagram>
</mxfile>
